<?xml version="1.0" encoding="UTF-8" standalone="no"?>
<!DOCTYPE svg PUBLIC "-//W3C//DTD SVG 1.1//EN"
 "http://www.w3.org/Graphics/SVG/1.1/DTD/svg11.dtd">
<!-- Generated by graphviz version 13.1.2 (20250808.2320)
 -->
<!-- Title: bdd Pages: 1 -->
<svg width="426pt" height="515pt"
 viewBox="0.00 0.00 426.00 515.00" xmlns="http://www.w3.org/2000/svg" xmlns:xlink="http://www.w3.org/1999/xlink">
<g id="graph0" class="graph" transform="scale(1 1) rotate(0) translate(4 511.47)">
<title>bdd</title>
<polygon fill="white" stroke="none" points="-4,4 -4,-511.47 422,-511.47 422,4 -4,4"/>
<g id="clust2" class="cluster">
<title>cluster_mc</title>
<polygon fill="none" stroke="#999999" stroke-dasharray="5,2" points="229,-88.86 229,-165.36 377,-165.36 377,-88.86 229,-88.86"/>
<text xml:space="preserve" text-anchor="middle" x="303" y="-148.06" font-family="Times,serif" font-size="14.00" fill="#666666">Model Context Protocol</text>
</g>
<!-- title -->
<g id="node1" class="node">
<title>title</title>
<text xml:space="preserve" text-anchor="start" x="20" y="-484.8" font-family="Helvetica,sans-Serif" font-size="14.00" fill="#666666">You are a voice assistant for Bath Driven Development</text>
</g>
<!-- start -->
<g id="node2" class="node">
<title>start</title>
<ellipse fill="lightgreen" stroke="black" cx="209" cy="-406.91" rx="23.56" ry="23.56"/>
<ellipse fill="none" stroke="black" cx="209" cy="-406.91" rx="27.56" ry="27.56"/>
<text xml:space="preserve" text-anchor="middle" x="209" y="-403.79" font-family="Helvetica,sans-Serif" font-size="10.00">start</text>
</g>
<!-- title&#45;&gt;start -->
<!-- stt -->
<g id="node4" class="node">
<title>stt</title>
<path fill="none" stroke="black" d="M240.62,-332.11C240.62,-332.11 177.38,-332.11 177.38,-332.11 171.38,-332.11 165.38,-326.11 165.38,-320.11 165.38,-320.11 165.38,-308.11 165.38,-308.11 165.38,-302.11 171.38,-296.11 177.38,-296.11 177.38,-296.11 240.62,-296.11 240.62,-296.11 246.62,-296.11 252.62,-302.11 252.62,-308.11 252.62,-308.11 252.62,-320.11 252.62,-320.11 252.62,-326.11 246.62,-332.11 240.62,-332.11"/>
<text xml:space="preserve" text-anchor="middle" x="209" y="-317.36" font-family="Helvetica,sans-Serif" font-size="10.00">Speech to Text</text>
<text xml:space="preserve" text-anchor="middle" x="209" y="-304.61" font-family="Helvetica,sans-Serif" font-size="10.00">(openapi&#45;call)</text>
</g>
<!-- start&#45;&gt;stt -->
<g id="edge2" class="edge">
<title>start&#45;&gt;stt</title>
<path fill="none" stroke="black" d="M209,-379.08C209,-370.89 209,-360.87 209,-343.56"/>
<polygon fill="black" stroke="black" points="212.5,-344 209,-334 205.5,-344 212.5,-344"/>
<text xml:space="preserve" text-anchor="middle" x="227" y="-352.81" font-family="Helvetica,sans-Serif" font-size="9.00">audio in</text>
</g>
<!-- end -->
<g id="node3" class="node">
<title>end</title>
<ellipse fill="lightcoral" stroke="black" cx="176" cy="-24.8" rx="20.8" ry="20.8"/>
<ellipse fill="none" stroke="black" cx="176" cy="-24.8" rx="24.8" ry="24.8"/>
<text xml:space="preserve" text-anchor="middle" x="176" y="-21.68" font-family="Helvetica,sans-Serif" font-size="10.00">end</text>
</g>
<!-- mc -->
<g id="node5" class="node">
<title>mc</title>
<path fill="none" stroke="black" d="M406,-248.86C406,-248.86 12,-248.86 12,-248.86 6,-248.86 0,-242.86 0,-236.86 0,-236.86 0,-214.61 0,-214.61 0,-208.61 6,-202.61 12,-202.61 12,-202.61 406,-202.61 406,-202.61 412,-202.61 418,-208.61 418,-214.61 418,-214.61 418,-236.86 418,-236.86 418,-242.86 412,-248.86 406,-248.86"/>
<text xml:space="preserve" text-anchor="middle" x="209" y="-235.36" font-family="Helvetica,sans-Serif" font-size="10.00">Master of Ceremonies</text>
<text xml:space="preserve" text-anchor="middle" x="209" y="-222.61" font-family="Helvetica,sans-Serif" font-size="10.00">(llm)</text>
<text xml:space="preserve" text-anchor="middle" x="209" y="-209.86" font-family="Helvetica,sans-Serif" font-size="10.00">You are a voice assistant for software development. The user is speaking to you ...</text>
</g>
<!-- stt&#45;&gt;mc -->
<g id="edge3" class="edge">
<title>stt&#45;&gt;mc</title>
<path fill="none" stroke="black" d="M209,-295.63C209,-286.88 209,-278.34 209,-260.77"/>
<polygon fill="black" stroke="black" points="212.5,-260.82 209,-250.82 205.5,-260.82 212.5,-260.82"/>
<text xml:space="preserve" text-anchor="middle" x="234.88" y="-269.56" font-family="Helvetica,sans-Serif" font-size="9.00">transcribed</text>
</g>
<!-- tts -->
<g id="node6" class="node">
<title>tts</title>
<path fill="none" stroke="black" d="M207.62,-132.86C207.62,-132.86 144.38,-132.86 144.38,-132.86 138.38,-132.86 132.38,-126.86 132.38,-120.86 132.38,-120.86 132.38,-108.86 132.38,-108.86 132.38,-102.86 138.38,-96.86 144.38,-96.86 144.38,-96.86 207.62,-96.86 207.62,-96.86 213.62,-96.86 219.62,-102.86 219.62,-108.86 219.62,-108.86 219.62,-120.86 219.62,-120.86 219.62,-126.86 213.62,-132.86 207.62,-132.86"/>
<text xml:space="preserve" text-anchor="middle" x="176" y="-118.11" font-family="Helvetica,sans-Serif" font-size="10.00">Text to Speech</text>
<text xml:space="preserve" text-anchor="middle" x="176" y="-105.36" font-family="Helvetica,sans-Serif" font-size="10.00">(openapi&#45;call)</text>
</g>
<!-- mc&#45;&gt;tts -->
<g id="edge4" class="edge">
<title>mc&#45;&gt;tts</title>
<path fill="none" stroke="black" d="M202.73,-202.39C194.1,-170.37 190.08,-155.83 186.14,-143.59"/>
<polygon fill="black" stroke="black" points="189.58,-142.84 183.07,-134.48 182.95,-145.07 189.58,-142.84"/>
<text xml:space="preserve" text-anchor="middle" x="197.25" y="-176.06" font-family="Helvetica,sans-Serif" font-size="9.00">response</text>
</g>
<!-- mc&#45;mcp -->
<g id="node7" class="node">
<title>mc&#45;mcp</title>
<path fill="none" stroke="black" d="M356,-132.86C356,-132.86 250,-132.86 250,-132.86 244,-132.86 238,-126.86 238,-120.86 238,-120.86 238,-108.86 238,-108.86 238,-102.86 244,-96.86 250,-96.86 250,-96.86 356,-96.86 356,-96.86 362,-96.86 368,-102.86 368,-108.86 368,-108.86 368,-120.86 368,-120.86 368,-126.86 362,-132.86 356,-132.86"/>
<text xml:space="preserve" text-anchor="middle" x="303" y="-118.11" font-family="Helvetica,sans-Serif" font-size="10.00">Model Context Protocol</text>
<text xml:space="preserve" text-anchor="middle" x="303" y="-105.36" font-family="Helvetica,sans-Serif" font-size="10.00">(mcp&#45;service)</text>
</g>
<!-- mc&#45;&gt;mc&#45;mcp -->
<g id="edge6" class="edge">
<title>mc&#45;&gt;mc&#45;mcp</title>
<path fill="none" stroke="black" d="M226.74,-202.36C252.66,-168.27 264.37,-153.3 275.63,-141.23"/>
<polygon fill="black" stroke="black" points="277.99,-143.82 282.46,-134.22 272.97,-138.94 277.99,-143.82"/>
<text xml:space="preserve" text-anchor="middle" x="259.75" y="-176.06" font-family="Helvetica,sans-Serif" font-size="9.00">mc&#45;mcp</text>
</g>
<!-- tts&#45;&gt;end -->
<g id="edge5" class="edge">
<title>tts&#45;&gt;end</title>
<path fill="none" stroke="black" d="M175.07,-96.4C174.25,-79.93 173.78,-69.17 173.65,-60.94"/>
<polygon fill="black" stroke="black" points="177.15,-61.15 173.72,-51.12 170.15,-61.1 177.15,-61.15"/>
<text xml:space="preserve" text-anchor="middle" x="197.38" y="-70.31" font-family="Helvetica,sans-Serif" font-size="9.00">audio out</text>
</g>
<!-- mc&#45;mcp&#45;&gt;mc -->
<g id="edge7" class="edge">
<title>mc&#45;mcp&#45;&gt;mc</title>
<path fill="none" stroke="black" d="M226.75,-202.35C252.58,-168.38 264.3,-153.39 275.52,-141.34"/>
<polygon fill="black" stroke="black" points="277.86,-143.96 282.32,-134.35 272.84,-139.08 277.86,-143.96"/>
<text xml:space="preserve" text-anchor="middle" x="309.12" y="-176.06" font-family="Helvetica,sans-Serif" font-size="9.00">mc</text>
</g>
</g>
</svg>
