<?xml version="1.0" encoding="UTF-8" standalone="no"?>
<!DOCTYPE svg PUBLIC "-//W3C//DTD SVG 1.1//EN"
 "http://www.w3.org/Graphics/SVG/1.1/DTD/svg11.dtd">
<!-- Generated by graphviz version 13.1.2 (20250808.2320)
 -->
<!-- Title: bdd Pages: 1 -->
<svg width="426pt" height="515pt"
 viewBox="0.00 0.00 426.00 515.00" xmlns="http://www.w3.org/2000/svg" xmlns:xlink="http://www.w3.org/1999/xlink">
<g id="graph0" class="graph" transform="scale(1 1) rotate(0) translate(4 511.47)">
<title>bdd</title>
<polygon fill="white" stroke="none" points="-4,4 -4,-511.47 422,-511.47 422,4 -4,4"/>
<g id="clust2" class="cluster">
<title>cluster_mc</title>
<polygon fill="none" stroke="#999999" stroke-dasharray="5,2" points="191,-88.86 191,-165.36 339,-165.36 339,-88.86 191,-88.86"/>
<text xml:space="preserve" text-anchor="middle" x="265" y="-148.06" font-family="Times,serif" font-size="14.00" fill="#666666">Model Context Protocol</text>
</g>
<!-- title -->
<g id="node1" class="node">
<title>title</title>
<text xml:space="preserve" text-anchor="start" x="20" y="-484.8" font-family="Helvetica,sans-Serif" font-size="14.00" fill="#666666">You are a voice assistant for Bath Driven Development</text>
</g>
<!-- start -->
<g id="node2" class="node">
<title>start</title>
<ellipse fill="lightgreen" stroke="black" cx="209" cy="-406.91" rx="23.56" ry="23.56"/>
<ellipse fill="none" stroke="black" cx="209" cy="-406.91" rx="27.56" ry="27.56"/>
<text xml:space="preserve" text-anchor="middle" x="209" y="-403.79" font-family="Helvetica,sans-Serif" font-size="10.00">start</text>
</g>
<!-- title&#45;&gt;start -->
<!-- stt -->
<g id="node4" class="node">
<title>stt</title>
<path fill="none" stroke="black" d="M240.62,-332.11C240.62,-332.11 177.38,-332.11 177.38,-332.11 171.38,-332.11 165.38,-326.11 165.38,-320.11 165.38,-320.11 165.38,-308.11 165.38,-308.11 165.38,-302.11 171.38,-296.11 177.38,-296.11 177.38,-296.11 240.62,-296.11 240.62,-296.11 246.62,-296.11 252.62,-302.11 252.62,-308.11 252.62,-308.11 252.62,-320.11 252.62,-320.11 252.62,-326.11 246.62,-332.11 240.62,-332.11"/>
<text xml:space="preserve" text-anchor="middle" x="209" y="-317.36" font-family="Helvetica,sans-Serif" font-size="10.00">Speech to Text</text>
<text xml:space="preserve" text-anchor="middle" x="209" y="-304.61" font-family="Helvetica,sans-Serif" font-size="10.00">(openapi&#45;call)</text>
</g>
<!-- start&#45;&gt;stt -->
<g id="edge2" class="edge">
<title>start&#45;&gt;stt</title>
<path fill="none" stroke="black" d="M209,-379.08C209,-370.89 209,-360.87 209,-343.56"/>
<polygon fill="black" stroke="black" points="212.5,-344 209,-334 205.5,-344 212.5,-344"/>
<text xml:space="preserve" text-anchor="middle" x="227" y="-352.81" font-family="Helvetica,sans-Serif" font-size="9.00">audio in</text>
</g>
<!-- end -->
<g id="node3" class="node">
<title>end</title>
<ellipse fill="lightcoral" stroke="black" cx="138" cy="-24.8" rx="20.8" ry="20.8"/>
<ellipse fill="none" stroke="black" cx="138" cy="-24.8" rx="24.8" ry="24.8"/>
<text xml:space="preserve" text-anchor="middle" x="138" y="-21.68" font-family="Helvetica,sans-Serif" font-size="10.00">end</text>
</g>
<!-- mc -->
<g id="node5" class="node">
<title>mc</title>
<path fill="none" stroke="black" d="M406,-248.86C406,-248.86 12,-248.86 12,-248.86 6,-248.86 0,-242.86 0,-236.86 0,-236.86 0,-214.61 0,-214.61 0,-208.61 6,-202.61 12,-202.61 12,-202.61 406,-202.61 406,-202.61 412,-202.61 418,-208.61 418,-214.61 418,-214.61 418,-236.86 418,-236.86 418,-242.86 412,-248.86 406,-248.86"/>
<text xml:space="preserve" text-anchor="middle" x="209" y="-235.36" font-family="Helvetica,sans-Serif" font-size="10.00">Master of Ceremonies</text>
<text xml:space="preserve" text-anchor="middle" x="209" y="-222.61" font-family="Helvetica,sans-Serif" font-size="10.00">(llm)</text>
<text xml:space="preserve" text-anchor="middle" x="209" y="-209.86" font-family="Helvetica,sans-Serif" font-size="10.00">You are a voice assistant for software development. The user is speaking to you ...</text>
</g>
<!-- stt&#45;&gt;mc -->
<g id="edge3" class="edge">
<title>stt&#45;&gt;mc</title>
<path fill="none" stroke="black" d="M209,-295.63C209,-286.88 209,-278.34 209,-260.77"/>
<polygon fill="black" stroke="black" points="212.5,-260.82 209,-250.82 205.5,-260.82 212.5,-260.82"/>
<text xml:space="preserve" text-anchor="middle" x="234.88" y="-269.56" font-family="Helvetica,sans-Serif" font-size="9.00">transcribed</text>
</g>
<!-- tts -->
<g id="node6" class="node">
<title>tts</title>
<path fill="none" stroke="black" d="M169.62,-132.86C169.62,-132.86 106.38,-132.86 106.38,-132.86 100.38,-132.86 94.38,-126.86 94.38,-120.86 94.38,-120.86 94.38,-108.86 94.38,-108.86 94.38,-102.86 100.38,-96.86 106.38,-96.86 106.38,-96.86 169.62,-96.86 169.62,-96.86 175.62,-96.86 181.62,-102.86 181.62,-108.86 181.62,-108.86 181.62,-120.86 181.62,-120.86 181.62,-126.86 175.62,-132.86 169.62,-132.86"/>
<text xml:space="preserve" text-anchor="middle" x="138" y="-118.11" font-family="Helvetica,sans-Serif" font-size="10.00">Text to Speech</text>
<text xml:space="preserve" text-anchor="middle" x="138" y="-105.36" font-family="Helvetica,sans-Serif" font-size="10.00">(openapi&#45;call)</text>
</g>
<!-- mc&#45;&gt;tts -->
<g id="edge4" class="edge">
<title>mc&#45;&gt;tts</title>
<path fill="none" stroke="black" d="M195.52,-202.3C176.42,-169.17 167.66,-154.39 159.18,-142.26"/>
<polygon fill="black" stroke="black" points="162.21,-140.46 153.48,-134.46 156.56,-144.59 162.21,-140.46"/>
<text xml:space="preserve" text-anchor="middle" x="189.25" y="-176.06" font-family="Helvetica,sans-Serif" font-size="9.00">response</text>
</g>
<!-- mc&#45;mcp -->
<g id="node7" class="node">
<title>mc&#45;mcp</title>
<path fill="none" stroke="black" d="M318,-132.86C318,-132.86 212,-132.86 212,-132.86 206,-132.86 200,-126.86 200,-120.86 200,-120.86 200,-108.86 200,-108.86 200,-102.86 206,-96.86 212,-96.86 212,-96.86 318,-96.86 318,-96.86 324,-96.86 330,-102.86 330,-108.86 330,-108.86 330,-120.86 330,-120.86 330,-126.86 324,-132.86 318,-132.86"/>
<text xml:space="preserve" text-anchor="middle" x="265" y="-118.11" font-family="Helvetica,sans-Serif" font-size="10.00">Model Context Protocol</text>
<text xml:space="preserve" text-anchor="middle" x="265" y="-105.36" font-family="Helvetica,sans-Serif" font-size="10.00">(mcp&#45;service)</text>
</g>
<!-- mc&#45;&gt;mc&#45;mcp -->
<g id="edge6" class="edge">
<title>mc&#45;&gt;mc&#45;mcp</title>
<path fill="none" stroke="black" d="M219.73,-202.13C234.47,-169.79 241.33,-155.13 247.98,-143.01"/>
<polygon fill="black" stroke="black" points="250.98,-144.81 252.92,-134.4 244.91,-141.33 250.98,-144.81"/>
<text xml:space="preserve" text-anchor="middle" x="267.75" y="-176.06" font-family="Helvetica,sans-Serif" font-size="9.00">mc&#45;mcp</text>
</g>
<!-- tts&#45;&gt;end -->
<g id="edge5" class="edge">
<title>tts&#45;&gt;end</title>
<path fill="none" stroke="black" d="M136.07,-96.38C134.37,-79.8 133.41,-69.11 133.19,-60.85"/>
<polygon fill="black" stroke="black" points="136.68,-60.98 133.41,-50.91 129.69,-60.83 136.68,-60.98"/>
<text xml:space="preserve" text-anchor="middle" x="159.38" y="-70.31" font-family="Helvetica,sans-Serif" font-size="9.00">audio out</text>
</g>
<!-- mc&#45;mcp&#45;&gt;mc -->
<g id="edge7" class="edge">
<title>mc&#45;mcp:w&#45;&gt;mc:w</title>
<path fill="none" stroke="black" d="M0,-225.73C61.88,-144.85 63.63,-142.56 188.74,-117.14"/>
<polygon fill="black" stroke="black" points="189.41,-120.58 198.52,-115.16 188.02,-113.72 189.41,-120.58"/>
<text xml:space="preserve" text-anchor="middle" x="317.12" y="-176.06" font-family="Helvetica,sans-Serif" font-size="9.00">mc</text>
</g>
</g>
</svg>
