<?xml version="1.0" encoding="UTF-8" standalone="no"?>
<!DOCTYPE svg PUBLIC "-//W3C//DTD SVG 1.1//EN"
 "http://www.w3.org/Graphics/SVG/1.1/DTD/svg11.dtd">
<!-- Generated by graphviz version 13.1.2 (20250808.2320)
 -->
<!-- Title: bdd Pages: 1 -->
<svg width="480pt" height="515pt"
 viewBox="0.00 0.00 480.00 515.00" xmlns="http://www.w3.org/2000/svg" xmlns:xlink="http://www.w3.org/1999/xlink">
<g id="graph0" class="graph" transform="scale(1 1) rotate(0) translate(4 511.47)">
<title>bdd</title>
<polygon fill="white" stroke="none" points="-4,4 -4,-511.47 476,-511.47 476,4 -4,4"/>
<g id="clust2" class="cluster">
<title>cluster_mc</title>
<polygon fill="none" stroke="#999999" stroke-dasharray="5,2" points="250,-265.61 250,-342.11 398,-342.11 398,-265.61 250,-265.61"/>
<text xml:space="preserve" text-anchor="middle" x="324" y="-324.81" font-family="Times,serif" font-size="14.00" fill="#666666">Model Context Protocol</text>
</g>
<!-- title -->
<g id="node1" class="node">
<title>title</title>
<text xml:space="preserve" text-anchor="start" x="8" y="-484.8" font-family="Helvetica,sans-Serif" font-size="14.00" fill="#666666">You are a voice assistant for Bath Driven Development</text>
</g>
<!-- start -->
<g id="node2" class="node">
<title>start</title>
<ellipse fill="lightgreen" stroke="black" cx="197" cy="-406.91" rx="23.56" ry="23.56"/>
<ellipse fill="none" stroke="black" cx="197" cy="-406.91" rx="27.56" ry="27.56"/>
<text xml:space="preserve" text-anchor="middle" x="197" y="-403.79" font-family="Helvetica,sans-Serif" font-size="10.00">start</text>
</g>
<!-- title&#45;&gt;start -->
<!-- stt -->
<g id="node4" class="node">
<title>stt</title>
<path fill="none" stroke="black" d="M228.62,-309.61C228.62,-309.61 165.38,-309.61 165.38,-309.61 159.38,-309.61 153.38,-303.61 153.38,-297.61 153.38,-297.61 153.38,-285.61 153.38,-285.61 153.38,-279.61 159.38,-273.61 165.38,-273.61 165.38,-273.61 228.62,-273.61 228.62,-273.61 234.62,-273.61 240.62,-279.61 240.62,-285.61 240.62,-285.61 240.62,-297.61 240.62,-297.61 240.62,-303.61 234.62,-309.61 228.62,-309.61"/>
<text xml:space="preserve" text-anchor="middle" x="197" y="-294.86" font-family="Helvetica,sans-Serif" font-size="10.00">Speech to Text</text>
<text xml:space="preserve" text-anchor="middle" x="197" y="-282.11" font-family="Helvetica,sans-Serif" font-size="10.00">(openapi&#45;call)</text>
</g>
<!-- start&#45;&gt;stt -->
<g id="edge2" class="edge">
<title>start&#45;&gt;stt</title>
<path fill="none" stroke="black" d="M197,-379.06C197,-361.73 197,-339.19 197,-321.47"/>
<polygon fill="black" stroke="black" points="200.5,-321.61 197,-311.61 193.5,-321.61 200.5,-321.61"/>
<text xml:space="preserve" text-anchor="middle" x="203" y="-352.81" font-family="Helvetica,sans-Serif" font-size="9.00">stt</text>
</g>
<!-- end -->
<g id="node3" class="node">
<title>end</title>
<ellipse fill="lightcoral" stroke="black" cx="263" cy="-24.8" rx="20.8" ry="20.8"/>
<ellipse fill="none" stroke="black" cx="263" cy="-24.8" rx="24.8" ry="24.8"/>
<text xml:space="preserve" text-anchor="middle" x="263" y="-21.68" font-family="Helvetica,sans-Serif" font-size="10.00">end</text>
</g>
<!-- mc -->
<g id="node5" class="node">
<title>mc</title>
<path fill="none" stroke="black" d="M460,-226.36C460,-226.36 66,-226.36 66,-226.36 60,-226.36 54,-220.36 54,-214.36 54,-214.36 54,-192.11 54,-192.11 54,-186.11 60,-180.11 66,-180.11 66,-180.11 460,-180.11 460,-180.11 466,-180.11 472,-186.11 472,-192.11 472,-192.11 472,-214.36 472,-214.36 472,-220.36 466,-226.36 460,-226.36"/>
<text xml:space="preserve" text-anchor="middle" x="263" y="-212.86" font-family="Helvetica,sans-Serif" font-size="10.00">Master of Ceremonies</text>
<text xml:space="preserve" text-anchor="middle" x="263" y="-200.11" font-family="Helvetica,sans-Serif" font-size="10.00">(llm)</text>
<text xml:space="preserve" text-anchor="middle" x="263" y="-187.36" font-family="Helvetica,sans-Serif" font-size="10.00">You are a voice assistant for software development. The user is speaking to you ...</text>
</g>
<!-- stt&#45;&gt;mc -->
<g id="edge3" class="edge">
<title>stt&#45;&gt;mc</title>
<path fill="none" stroke="black" d="M210.36,-273.13C218.6,-262.34 229.42,-248.18 239.1,-235.51"/>
<polygon fill="black" stroke="black" points="241.69,-237.89 244.98,-227.82 236.12,-233.64 241.69,-237.89"/>
<text xml:space="preserve" text-anchor="middle" x="239.1" y="-247.06" font-family="Helvetica,sans-Serif" font-size="9.00">mc</text>
</g>
<!-- tts -->
<g id="node6" class="node">
<title>tts</title>
<path fill="none" stroke="black" d="M294.62,-132.86C294.62,-132.86 231.38,-132.86 231.38,-132.86 225.38,-132.86 219.38,-126.86 219.38,-120.86 219.38,-120.86 219.38,-108.86 219.38,-108.86 219.38,-102.86 225.38,-96.86 231.38,-96.86 231.38,-96.86 294.62,-96.86 294.62,-96.86 300.62,-96.86 306.62,-102.86 306.62,-108.86 306.62,-108.86 306.62,-120.86 306.62,-120.86 306.62,-126.86 300.62,-132.86 294.62,-132.86"/>
<text xml:space="preserve" text-anchor="middle" x="263" y="-118.11" font-family="Helvetica,sans-Serif" font-size="10.00">Text to Speech</text>
<text xml:space="preserve" text-anchor="middle" x="263" y="-105.36" font-family="Helvetica,sans-Serif" font-size="10.00">(openapi&#45;call)</text>
</g>
<!-- mc&#45;&gt;tts -->
<g id="edge4" class="edge">
<title>mc&#45;&gt;tts</title>
<path fill="none" stroke="black" d="M263,-179.99C263,-169.16 263,-156 263,-144.44"/>
<polygon fill="black" stroke="black" points="266.5,-144.63 263,-134.63 259.5,-144.63 266.5,-144.63"/>
<text xml:space="preserve" text-anchor="middle" x="269" y="-153.56" font-family="Helvetica,sans-Serif" font-size="9.00">tts</text>
</g>
<!-- mc&#45;mcp -->
<g id="node7" class="node">
<title>mc&#45;mcp</title>
<path fill="none" stroke="black" d="M377,-309.61C377,-309.61 271,-309.61 271,-309.61 265,-309.61 259,-303.61 259,-297.61 259,-297.61 259,-285.61 259,-285.61 259,-279.61 265,-273.61 271,-273.61 271,-273.61 377,-273.61 377,-273.61 383,-273.61 389,-279.61 389,-285.61 389,-285.61 389,-297.61 389,-297.61 389,-303.61 383,-309.61 377,-309.61"/>
<text xml:space="preserve" text-anchor="middle" x="324" y="-294.86" font-family="Helvetica,sans-Serif" font-size="10.00">Model Context Protocol</text>
<text xml:space="preserve" text-anchor="middle" x="324" y="-282.11" font-family="Helvetica,sans-Serif" font-size="10.00">(mcp&#45;service)</text>
</g>
<!-- mc&#45;&gt;mc&#45;mcp -->
<g id="edge6" class="edge">
<title>mc&#45;&gt;mc&#45;mcp</title>
<path fill="none" stroke="black" d="M259.05,-226.8C258.51,-236.29 259.46,-247.08 264.5,-255.61 266.8,-259.5 269.72,-263 273.02,-266.15"/>
<polygon fill="black" stroke="black" points="270.7,-268.78 280.7,-272.31 275.08,-263.32 270.7,-268.78"/>
<text xml:space="preserve" text-anchor="middle" x="283.25" y="-247.06" font-family="Helvetica,sans-Serif" font-size="9.00">mc&#45;mcp</text>
</g>
<!-- tts&#45;&gt;end -->
<g id="edge5" class="edge">
<title>tts&#45;&gt;end</title>
<path fill="none" stroke="black" d="M263,-96.46C263,-86.36 263,-73.26 263,-61.09"/>
<polygon fill="black" stroke="black" points="266.5,-61.34 263,-51.34 259.5,-61.34 266.5,-61.34"/>
<text xml:space="preserve" text-anchor="middle" x="271.62" y="-70.31" font-family="Helvetica,sans-Serif" font-size="9.00">end</text>
</g>
<!-- mc&#45;mcp&#45;&gt;mc -->
<g id="edge7" class="edge">
<title>mc&#45;mcp&#45;&gt;mc</title>
<path fill="none" stroke="black" d="M317.32,-273.18C313.48,-264.18 308.19,-253.26 302,-244.36 299.77,-241.15 297.28,-237.96 294.66,-234.86"/>
<polygon fill="black" stroke="black" points="297.38,-232.64 288.08,-227.55 292.17,-237.33 297.38,-232.64"/>
<text xml:space="preserve" text-anchor="middle" x="315.73" y="-247.06" font-family="Helvetica,sans-Serif" font-size="9.00">mc</text>
</g>
</g>
</svg>
