<?xml version="1.0" encoding="UTF-8" standalone="no"?>
<!DOCTYPE svg PUBLIC "-//W3C//DTD SVG 1.1//EN"
 "http://www.w3.org/Graphics/SVG/1.1/DTD/svg11.dtd">
<!-- Generated by graphviz version 13.1.2 (20250808.2320)
 -->
<!-- Title: bdd Pages: 1 -->
<svg width="489pt" height="515pt"
 viewBox="0.00 0.00 489.00 515.00" xmlns="http://www.w3.org/2000/svg" xmlns:xlink="http://www.w3.org/1999/xlink">
<g id="graph0" class="graph" transform="scale(1 1) rotate(0) translate(4 511.47)">
<title>bdd</title>
<polygon fill="white" stroke="none" points="-4,4 -4,-511.47 485,-511.47 485,4 -4,4"/>
<g id="clust2" class="cluster">
<title>cluster_mc</title>
<polygon fill="none" stroke="#999999" stroke-dasharray="5,2" points="250,-265.61 250,-342.11 398,-342.11 398,-265.61 250,-265.61"/>
<text xml:space="preserve" text-anchor="middle" x="324" y="-324.81" font-family="Times,serif" font-size="14.00" fill="#666666">Model Context Protocol</text>
</g>
<!-- title -->
<g id="node1" class="node">
<title>title</title>
<text xml:space="preserve" text-anchor="start" x="8" y="-484.8" font-family="Helvetica,sans-Serif" font-size="14.00" fill="#666666">You are a voice assistant for Bath Driven Development</text>
</g>
<!-- start -->
<g id="node2" class="node">
<title>start</title>
<ellipse fill="lightgreen" stroke="black" cx="197" cy="-406.91" rx="23.56" ry="23.56"/>
<ellipse fill="none" stroke="black" cx="197" cy="-406.91" rx="27.56" ry="27.56"/>
<text xml:space="preserve" text-anchor="middle" x="197" y="-403.79" font-family="Helvetica,sans-Serif" font-size="10.00">start</text>
</g>
<!-- title&#45;&gt;start -->
<!-- stt -->
<g id="node4" class="node">
<title>stt</title>
<path fill="none" stroke="black" d="M228.62,-309.61C228.62,-309.61 165.38,-309.61 165.38,-309.61 159.38,-309.61 153.38,-303.61 153.38,-297.61 153.38,-297.61 153.38,-285.61 153.38,-285.61 153.38,-279.61 159.38,-273.61 165.38,-273.61 165.38,-273.61 228.62,-273.61 228.62,-273.61 234.62,-273.61 240.62,-279.61 240.62,-285.61 240.62,-285.61 240.62,-297.61 240.62,-297.61 240.62,-303.61 234.62,-309.61 228.62,-309.61"/>
<text xml:space="preserve" text-anchor="middle" x="197" y="-294.86" font-family="Helvetica,sans-Serif" font-size="10.00">Speech to Text</text>
<text xml:space="preserve" text-anchor="middle" x="197" y="-282.11" font-family="Helvetica,sans-Serif" font-size="10.00">(openapi&#45;call)</text>
</g>
<!-- start&#45;&gt;stt -->
<g id="edge2" class="edge">
<title>start&#45;&gt;stt</title>
<path fill="none" stroke="black" d="M190.84,-379.76C188.9,-366.22 189.76,-352.85 193.43,-321.35"/>
<polygon fill="black" stroke="black" points="196.9,-321.79 194.6,-311.45 189.95,-320.97 196.9,-321.79"/>
<text xml:space="preserve" text-anchor="middle" x="215" y="-352.81" font-family="Helvetica,sans-Serif" font-size="9.00">audio in</text>
</g>
<!-- end -->
<g id="node3" class="node">
<title>end</title>
<ellipse fill="lightcoral" stroke="black" cx="272" cy="-24.8" rx="20.8" ry="20.8"/>
<ellipse fill="none" stroke="black" cx="272" cy="-24.8" rx="24.8" ry="24.8"/>
<text xml:space="preserve" text-anchor="middle" x="272" y="-21.68" font-family="Helvetica,sans-Serif" font-size="10.00">end</text>
</g>
<!-- mc -->
<g id="node5" class="node">
<title>mc</title>
<path fill="none" stroke="black" d="M469,-226.36C469,-226.36 75,-226.36 75,-226.36 69,-226.36 63,-220.36 63,-214.36 63,-214.36 63,-192.11 63,-192.11 63,-186.11 69,-180.11 75,-180.11 75,-180.11 469,-180.11 469,-180.11 475,-180.11 481,-186.11 481,-192.11 481,-192.11 481,-214.36 481,-214.36 481,-220.36 475,-226.36 469,-226.36"/>
<text xml:space="preserve" text-anchor="middle" x="272" y="-212.86" font-family="Helvetica,sans-Serif" font-size="10.00">Master of Ceremonies</text>
<text xml:space="preserve" text-anchor="middle" x="272" y="-200.11" font-family="Helvetica,sans-Serif" font-size="10.00">(llm)</text>
<text xml:space="preserve" text-anchor="middle" x="272" y="-187.36" font-family="Helvetica,sans-Serif" font-size="10.00">You are a voice assistant for software development. The user is speaking to you ...</text>
</g>
<!-- stt&#45;&gt;mc -->
<g id="edge3" class="edge">
<title>stt&#45;&gt;mc</title>
<path fill="none" stroke="black" d="M203.49,-273.38C210.47,-254.24 215.39,-243.06 222.86,-234.42"/>
<polygon fill="black" stroke="black" points="225.02,-237.2 229.86,-227.78 220.2,-232.12 225.02,-237.2"/>
<text xml:space="preserve" text-anchor="middle" x="222.88" y="-247.06" font-family="Helvetica,sans-Serif" font-size="9.00">transcribed</text>
</g>
<!-- tts -->
<g id="node6" class="node">
<title>tts</title>
<path fill="none" stroke="black" d="M303.62,-132.86C303.62,-132.86 240.38,-132.86 240.38,-132.86 234.38,-132.86 228.38,-126.86 228.38,-120.86 228.38,-120.86 228.38,-108.86 228.38,-108.86 228.38,-102.86 234.38,-96.86 240.38,-96.86 240.38,-96.86 303.62,-96.86 303.62,-96.86 309.62,-96.86 315.62,-102.86 315.62,-108.86 315.62,-108.86 315.62,-120.86 315.62,-120.86 315.62,-126.86 309.62,-132.86 303.62,-132.86"/>
<text xml:space="preserve" text-anchor="middle" x="272" y="-118.11" font-family="Helvetica,sans-Serif" font-size="10.00">Text to Speech</text>
<text xml:space="preserve" text-anchor="middle" x="272" y="-105.36" font-family="Helvetica,sans-Serif" font-size="10.00">(openapi&#45;call)</text>
</g>
<!-- mc&#45;&gt;tts -->
<g id="edge4" class="edge">
<title>mc&#45;&gt;tts</title>
<path fill="none" stroke="black" d="M274.12,-179.83C275.61,-162.8 276.29,-152.68 276.17,-144.62"/>
<polygon fill="black" stroke="black" points="279.68,-144.58 275.48,-134.85 272.69,-145.08 279.68,-144.58"/>
<text xml:space="preserve" text-anchor="middle" x="292.25" y="-153.56" font-family="Helvetica,sans-Serif" font-size="9.00">response</text>
</g>
<!-- mc&#45;mcp -->
<g id="node7" class="node">
<title>mc&#45;mcp</title>
<path fill="none" stroke="black" d="M377,-309.61C377,-309.61 271,-309.61 271,-309.61 265,-309.61 259,-303.61 259,-297.61 259,-297.61 259,-285.61 259,-285.61 259,-279.61 265,-273.61 271,-273.61 271,-273.61 377,-273.61 377,-273.61 383,-273.61 389,-279.61 389,-285.61 389,-285.61 389,-297.61 389,-297.61 389,-303.61 383,-309.61 377,-309.61"/>
<text xml:space="preserve" text-anchor="middle" x="324" y="-294.86" font-family="Helvetica,sans-Serif" font-size="10.00">Model Context Protocol</text>
<text xml:space="preserve" text-anchor="middle" x="324" y="-282.11" font-family="Helvetica,sans-Serif" font-size="10.00">(mcp&#45;service)</text>
</g>
<!-- mc&#45;&gt;mc&#45;mcp -->
<g id="edge6" class="edge">
<title>mc&#45;&gt;mc&#45;mcp</title>
<path fill="none" stroke="black" d="M321.63,-273.21C319.02,-255.72 315.79,-246.8 305.04,-234.69"/>
<polygon fill="black" stroke="black" points="307.81,-232.52 298.36,-227.72 302.76,-237.36 307.81,-232.52"/>
<text xml:space="preserve" text-anchor="middle" x="290.75" y="-247.06" font-family="Helvetica,sans-Serif" font-size="9.00">mc&#45;mcp</text>
</g>
<!-- tts&#45;&gt;end -->
<g id="edge5" class="edge">
<title>tts&#45;&gt;end</title>
<path fill="none" stroke="black" d="M272.89,-96.39C273.66,-80.14 274.11,-69.46 274.24,-61.26"/>
<polygon fill="black" stroke="black" points="277.74,-61.5 274.19,-51.52 270.74,-61.53 277.74,-61.5"/>
<text xml:space="preserve" text-anchor="middle" x="293.38" y="-70.31" font-family="Helvetica,sans-Serif" font-size="9.00">audio out</text>
</g>
<!-- mc&#45;mcp&#45;&gt;mc -->
<g id="edge7" class="edge">
<title>mc&#45;mcp&#45;&gt;mc</title>
<path fill="none" stroke="black" d="M321.64,-273.31C319.03,-255.8 315.83,-246.86 305.12,-234.78"/>
<polygon fill="black" stroke="black" points="307.92,-232.63 298.47,-227.83 302.86,-237.48 307.92,-232.63"/>
<text xml:space="preserve" text-anchor="middle" x="340.12" y="-247.06" font-family="Helvetica,sans-Serif" font-size="9.00">mc</text>
</g>
</g>
</svg>
