<?xml version="1.0" encoding="UTF-8" standalone="no"?>
<!DOCTYPE svg PUBLIC "-//W3C//DTD SVG 1.1//EN"
 "http://www.w3.org/Graphics/SVG/1.1/DTD/svg11.dtd">
<!-- Generated by graphviz version 13.1.2 (20250808.2320)
 -->
<!-- Title: code&#45;review Pages: 1 -->
<svg width="690pt" height="690pt"
 viewBox="0.00 0.00 690.00 690.00" xmlns="http://www.w3.org/2000/svg" xmlns:xlink="http://www.w3.org/1999/xlink">
<g id="graph0" class="graph" transform="scale(1 1) rotate(0) translate(4 685.86)">
<title>code&#45;review</title>
<polygon fill="white" stroke="none" points="-4,4 -4,-685.86 686,-685.86 686,4 -4,4"/>
<!-- title -->
<g id="node1" class="node">
<title>title</title>
<text xml:space="preserve" text-anchor="start" x="192.5" y="-659.19" font-family="Helvetica,sans-Serif" font-size="14.00" fill="#666666">You are involved in a code review workflow</text>
</g>
<!-- start -->
<g id="node2" class="node">
<title>start</title>
<ellipse fill="lightgreen" stroke="black" cx="341" cy="-581.31" rx="23.56" ry="23.56"/>
<ellipse fill="none" stroke="black" cx="341" cy="-581.31" rx="27.56" ry="27.56"/>
<text xml:space="preserve" text-anchor="middle" x="341" y="-578.18" font-family="Helvetica,sans-Serif" font-size="10.00">start</text>
</g>
<!-- title&#45;&gt;start -->
<!-- mc -->
<g id="node4" class="node">
<title>mc</title>
<path fill="none" stroke="black" d="M670,-506.5C670,-506.5 12,-506.5 12,-506.5 6,-506.5 0,-500.5 0,-494.5 0,-494.5 0,-282.5 0,-282.5 0,-276.5 6,-270.5 12,-270.5 12,-270.5 670,-270.5 670,-270.5 676,-270.5 682,-276.5 682,-282.5 682,-282.5 682,-494.5 682,-494.5 682,-500.5 676,-506.5 670,-506.5"/>
<text xml:space="preserve" text-anchor="middle" x="341" y="-493" font-family="Helvetica,sans-Serif" font-size="10.00">mc</text>
<text xml:space="preserve" text-anchor="middle" x="341" y="-480.25" font-family="Helvetica,sans-Serif" font-size="10.00">(llm)</text>
<text xml:space="preserve" text-anchor="middle" x="341" y="-467.5" font-family="Helvetica,sans-Serif" font-size="10.00">You are an MC orchestrating a code review.</text>
<text xml:space="preserve" text-anchor="middle" x="341" y="-454.75" font-family="Helvetica,sans-Serif" font-size="10.00">You have been provided with a list of code quality concerns and a list of available LLMs.</text>
<text xml:space="preserve" text-anchor="middle" x="341" y="-442" font-family="Helvetica,sans-Serif" font-size="10.00">Your role is to distribute the concerns effectively across multiple LLM reviewers to ensure thorough code review.</text>
<text xml:space="preserve" text-anchor="middle" x="341" y="-417.25" font-family="Helvetica,sans-Serif" font-size="10.00">CONCERN DISTRIBUTION:</text>
<text xml:space="preserve" text-anchor="middle" x="341" y="-404.5" font-family="Helvetica,sans-Serif" font-size="10.00">&#45; Review the provided concerns list carefully</text>
<text xml:space="preserve" text-anchor="middle" x="341" y="-391.75" font-family="Helvetica,sans-Serif" font-size="10.00">&#45; Identify which concerns are most relevant to the code being reviewed</text>
<text xml:space="preserve" text-anchor="middle" x="341" y="-379" font-family="Helvetica,sans-Serif" font-size="10.00">&#45; Distribute 2&#45;3 relevant concerns to each LLM when requesting a review</text>
<text xml:space="preserve" text-anchor="middle" x="341" y="-366.25" font-family="Helvetica,sans-Serif" font-size="10.00">&#45; You can assign different concerns to different LLMs based on their strengths</text>
<text xml:space="preserve" text-anchor="middle" x="341" y="-353.5" font-family="Helvetica,sans-Serif" font-size="10.00">&#45; When you request a review, include the specific concerns in the &#39;concerns&#39; field along with the &#39;llm&#39; field specifying provider and model</text>
<text xml:space="preserve" text-anchor="middle" x="341" y="-328.75" font-family="Helvetica,sans-Serif" font-size="10.00">ITERATION STRATEGY:</text>
<text xml:space="preserve" text-anchor="middle" x="341" y="-316" font-family="Helvetica,sans-Serif" font-size="10.00">&#45; Continue requesting reviews until all important concerns have been addressed</text>
<text xml:space="preserve" text-anchor="middle" x="341" y="-303.25" font-family="Helvetica,sans-Serif" font-size="10.00">&#45; After each review, incorporate useful suggestions and request further review if needed</text>
<text xml:space="preserve" text-anchor="middle" x="341" y="-290.5" font-family="Helvetica,sans-Serif" font-size="10.00">&#45; Stop iterating when: (1) all concerns are addressed AND (2) no new useful issues are being discovered</text>
<text xml:space="preserve" text-anchor="middle" x="341" y="-277.75" font-family="Helvetica,sans-Serif" font-size="10.00">&#45; Then summarize your findings with the final version of the code</text>
</g>
<!-- start&#45;&gt;mc -->
<g id="edge2" class="edge">
<title>start&#45;&gt;mc</title>
<path fill="none" stroke="black" d="M341,-553.37C341,-543.34 341,-531.17 341,-518.05"/>
<polygon fill="black" stroke="black" points="344.5,-518.34 341,-508.34 337.5,-518.34 344.5,-518.34"/>
<text xml:space="preserve" text-anchor="middle" x="348.12" y="-527.2" font-family="Helvetica,sans-Serif" font-size="9.00">mc</text>
</g>
<!-- end -->
<g id="node3" class="node">
<title>end</title>
<ellipse fill="lightcoral" stroke="black" cx="149" cy="-111.62" rx="20.8" ry="20.8"/>
<ellipse fill="none" stroke="black" cx="149" cy="-111.62" rx="24.8" ry="24.8"/>
<text xml:space="preserve" text-anchor="middle" x="149" y="-108.5" font-family="Helvetica,sans-Serif" font-size="10.00">end</text>
</g>
<!-- mc&#45;&gt;end -->
<g id="edge5" class="edge">
<title>mc&#45;&gt;end</title>
<path fill="none" stroke="black" d="M214.95,-270.02C202.74,-255.07 191.42,-239.35 182,-223.25 168.29,-199.83 159.85,-170.24 154.94,-147.55"/>
<polygon fill="black" stroke="black" points="158.4,-146.98 152.99,-137.87 151.54,-148.37 158.4,-146.98"/>
<text xml:space="preserve" text-anchor="middle" x="207.55" y="-243.95" font-family="Helvetica,sans-Serif" font-size="9.00">end</text>
</g>
<!-- reviewer -->
<g id="node5" class="node">
<title>reviewer</title>
<path fill="none" stroke="black" d="M600.5,-223.25C600.5,-223.25 203.5,-223.25 203.5,-223.25 197.5,-223.25 191.5,-217.25 191.5,-211.25 191.5,-211.25 191.5,-12 191.5,-12 191.5,-6 197.5,0 203.5,0 203.5,0 600.5,0 600.5,0 606.5,0 612.5,-6 612.5,-12 612.5,-12 612.5,-211.25 612.5,-211.25 612.5,-217.25 606.5,-223.25 600.5,-223.25"/>
<text xml:space="preserve" text-anchor="middle" x="402" y="-209.75" font-family="Helvetica,sans-Serif" font-size="10.00">reviewer</text>
<text xml:space="preserve" text-anchor="middle" x="402" y="-197" font-family="Helvetica,sans-Serif" font-size="10.00">(llm)</text>
<text xml:space="preserve" text-anchor="middle" x="402" y="-184.25" font-family="Helvetica,sans-Serif" font-size="10.00">You are a code reviewer.</text>
<text xml:space="preserve" text-anchor="middle" x="402" y="-171.5" font-family="Helvetica,sans-Serif" font-size="10.00">You will receive code to review along with a list of specific concerns to focus on.</text>
<text xml:space="preserve" text-anchor="middle" x="402" y="-158.75" font-family="Helvetica,sans-Serif" font-size="10.00">The MC (coordinator) has selected these concerns as most relevant for this review.</text>
<text xml:space="preserve" text-anchor="middle" x="402" y="-134" font-family="Helvetica,sans-Serif" font-size="10.00">YOUR TASK:</text>
<text xml:space="preserve" text-anchor="middle" x="402" y="-121.25" font-family="Helvetica,sans-Serif" font-size="10.00">&#45; Give careful attention to the specific concerns provided in the request</text>
<text xml:space="preserve" text-anchor="middle" x="402" y="-108.5" font-family="Helvetica,sans-Serif" font-size="10.00">&#45; Review the code for issues related to these concerns</text>
<text xml:space="preserve" text-anchor="middle" x="402" y="-95.75" font-family="Helvetica,sans-Serif" font-size="10.00">&#45; You can also note other significant issues you discover</text>
<text xml:space="preserve" text-anchor="middle" x="402" y="-83" font-family="Helvetica,sans-Serif" font-size="10.00">&#45; You may modify the code to demonstrate improvements</text>
<text xml:space="preserve" text-anchor="middle" x="402" y="-70.25" font-family="Helvetica,sans-Serif" font-size="10.00">&#45; Add your specific comments about issues found</text>
<text xml:space="preserve" text-anchor="middle" x="402" y="-57.5" font-family="Helvetica,sans-Serif" font-size="10.00">&#45; Include general notes about the review in your response</text>
<text xml:space="preserve" text-anchor="middle" x="402" y="-32.75" font-family="Helvetica,sans-Serif" font-size="10.00">IMPORTANT:</text>
<text xml:space="preserve" text-anchor="middle" x="402" y="-20" font-family="Helvetica,sans-Serif" font-size="10.00">&#45; If the code looks good and addresses all concerns, say so clearly</text>
<text xml:space="preserve" text-anchor="middle" x="402" y="-7.25" font-family="Helvetica,sans-Serif" font-size="10.00">&#45; Don&#39;t feel obligated to find problems if none exist</text>
</g>
<!-- mc&#45;&gt;reviewer -->
<g id="edge3" class="edge">
<title>mc&#45;&gt;reviewer</title>
<path fill="none" stroke="black" d="M337.13,-270.05C338.16,-260.24 339.66,-250.54 341.75,-241.25 342.27,-238.95 342.83,-236.64 343.44,-234.32"/>
<polygon fill="black" stroke="black" points="346.74,-235.51 346.14,-224.94 340.01,-233.58 346.74,-235.51"/>
<text xml:space="preserve" text-anchor="middle" x="360.88" y="-243.95" font-family="Helvetica,sans-Serif" font-size="9.00">reviewer</text>
</g>
<!-- reviewer&#45;&gt;mc -->
<g id="edge4" class="edge">
<title>reviewer&#45;&gt;mc</title>
<path fill="none" stroke="black" d="M385.86,-223.58C384.04,-233.39 382.08,-243.14 380,-252.5 379.51,-254.69 379.01,-256.89 378.5,-259.11"/>
<polygon fill="black" stroke="black" points="375.1,-258.27 376.17,-268.82 381.91,-259.91 375.1,-258.27"/>
<text xml:space="preserve" text-anchor="middle" x="389.52" y="-243.95" font-family="Helvetica,sans-Serif" font-size="9.00">mc</text>
</g>
</g>
</svg>
