<?xml version="1.0" encoding="UTF-8" standalone="no"?>
<!DOCTYPE svg PUBLIC "-//W3C//DTD SVG 1.1//EN"
 "http://www.w3.org/Graphics/SVG/1.1/DTD/svg11.dtd">
<!-- Generated by graphviz version 13.1.2 (20250808.2320)
 -->
<!-- Title: mcp Pages: 1 -->
<svg width="386pt" height="739pt"
 viewBox="0.00 0.00 386.00 739.00" xmlns="http://www.w3.org/2000/svg" xmlns:xlink="http://www.w3.org/1999/xlink">
<g id="graph0" class="graph" transform="scale(1 1) rotate(0) translate(4 735.22)">
<title>mcp</title>
<polygon fill="white" stroke="none" points="-4,4 -4,-735.22 381.75,-735.22 381.75,4 -4,4"/>
<!-- title -->
<g id="node1" class="node">
<title>title</title>
<text xml:space="preserve" text-anchor="start" x="8" y="-708.55" font-family="Helvetica,sans-Serif" font-size="14.00" fill="#666666">Orchestrates MCP protocol interactions</text>
</g>
<!-- start -->
<g id="node2" class="node">
<title>start</title>
<ellipse fill="lightgreen" stroke="black" cx="143" cy="-630.66" rx="23.56" ry="23.56"/>
<ellipse fill="none" stroke="black" cx="143" cy="-630.66" rx="27.56" ry="27.56"/>
<text xml:space="preserve" text-anchor="middle" x="143" y="-627.54" font-family="Helvetica,sans-Serif" font-size="10.00">start</text>
</g>
<!-- title&#45;&gt;start -->
<!-- starting -->
<g id="node4" class="node">
<title>starting</title>
<path fill="none" stroke="black" d="M158,-544.61C158,-544.61 128,-544.61 128,-544.61 122,-544.61 116,-538.61 116,-532.61 116,-532.61 116,-520.61 116,-520.61 116,-514.61 122,-508.61 128,-508.61 128,-508.61 158,-508.61 158,-508.61 164,-508.61 170,-514.61 170,-520.61 170,-520.61 170,-532.61 170,-532.61 170,-538.61 164,-544.61 158,-544.61"/>
<text xml:space="preserve" text-anchor="middle" x="143" y="-529.86" font-family="Helvetica,sans-Serif" font-size="10.00">starting</text>
<text xml:space="preserve" text-anchor="middle" x="143" y="-517.11" font-family="Helvetica,sans-Serif" font-size="10.00">(start)</text>
</g>
<!-- start&#45;&gt;starting -->
<g id="edge2" class="edge">
<title>start&#45;&gt;starting</title>
<path fill="none" stroke="black" d="M143,-602.85C143,-588.55 143,-570.94 143,-556.35"/>
<polygon fill="black" stroke="black" points="146.5,-556.47 143,-546.47 139.5,-556.47 146.5,-556.47"/>
<text xml:space="preserve" text-anchor="middle" x="260.38" y="-576.56" font-family="Helvetica,sans-Serif" font-size="9.00">document</text>
<text xml:space="preserve" text-anchor="middle" x="260.38" y="-565.31" font-family="Helvetica,sans-Serif" font-size="9.00">starts the MCP service. Returns an initialise&#45;request.</text>
</g>
<!-- end -->
<g id="node3" class="node">
<title>end</title>
<ellipse fill="lightcoral" stroke="black" cx="225" cy="-24.8" rx="20.8" ry="20.8"/>
<ellipse fill="none" stroke="black" cx="225" cy="-24.8" rx="24.8" ry="24.8"/>
<text xml:space="preserve" text-anchor="middle" x="225" y="-21.68" font-family="Helvetica,sans-Serif" font-size="10.00">end</text>
</g>
<!-- shedding -->
<g id="node5" class="node">
<title>shedding</title>
<path fill="none" stroke="black" d="M161.12,-427.61C161.12,-427.61 124.88,-427.61 124.88,-427.61 118.88,-427.61 112.88,-421.61 112.88,-415.61 112.88,-415.61 112.88,-403.61 112.88,-403.61 112.88,-397.61 118.88,-391.61 124.88,-391.61 124.88,-391.61 161.12,-391.61 161.12,-391.61 167.12,-391.61 173.12,-397.61 173.12,-403.61 173.12,-403.61 173.12,-415.61 173.12,-415.61 173.12,-421.61 167.12,-427.61 161.12,-427.61"/>
<text xml:space="preserve" text-anchor="middle" x="143" y="-412.86" font-family="Helvetica,sans-Serif" font-size="10.00">shedding</text>
<text xml:space="preserve" text-anchor="middle" x="143" y="-400.11" font-family="Helvetica,sans-Serif" font-size="10.00">(shed)</text>
</g>
<!-- starting&#45;&gt;shedding -->
<g id="edge3" class="edge">
<title>starting&#45;&gt;shedding</title>
<path fill="none" stroke="black" d="M143,-508.14C143,-489.88 143,-460.93 143,-439.31"/>
<polygon fill="black" stroke="black" points="146.5,-439.37 143,-429.37 139.5,-439.37 146.5,-439.37"/>
<text xml:space="preserve" text-anchor="middle" x="233.38" y="-482.06" font-family="Helvetica,sans-Serif" font-size="9.00">initialise</text>
<text xml:space="preserve" text-anchor="middle" x="233.38" y="-470.81" font-family="Helvetica,sans-Serif" font-size="9.00">request</text>
<text xml:space="preserve" text-anchor="middle" x="233.38" y="-459.56" font-family="Helvetica,sans-Serif" font-size="9.00">(timeout)</text>
<text xml:space="preserve" text-anchor="middle" x="233.38" y="-448.31" font-family="Helvetica,sans-Serif" font-size="9.00">Shed unwanted list&#45;changed messages.</text>
</g>
<!-- initing -->
<g id="node6" class="node">
<title>initing</title>
<path fill="none" stroke="black" d="M158,-333.11C158,-333.11 128,-333.11 128,-333.11 122,-333.11 116,-327.11 116,-321.11 116,-321.11 116,-309.11 116,-309.11 116,-303.11 122,-297.11 128,-297.11 128,-297.11 158,-297.11 158,-297.11 164,-297.11 170,-303.11 170,-309.11 170,-309.11 170,-321.11 170,-321.11 170,-327.11 164,-333.11 158,-333.11"/>
<text xml:space="preserve" text-anchor="middle" x="143" y="-318.36" font-family="Helvetica,sans-Serif" font-size="10.00">initing</text>
<text xml:space="preserve" text-anchor="middle" x="143" y="-305.61" font-family="Helvetica,sans-Serif" font-size="10.00">(init)</text>
</g>
<!-- shedding&#45;&gt;initing -->
<g id="edge4" class="edge">
<title>shedding&#45;&gt;initing</title>
<path fill="none" stroke="black" d="M143,-391.21C143,-378.16 143,-360.01 143,-344.82"/>
<polygon fill="black" stroke="black" points="146.5,-344.94 143,-334.94 139.5,-344.94 146.5,-344.94"/>
<text xml:space="preserve" text-anchor="middle" x="163.25" y="-365.06" font-family="Helvetica,sans-Serif" font-size="9.00">initialise</text>
<text xml:space="preserve" text-anchor="middle" x="163.25" y="-353.81" font-family="Helvetica,sans-Serif" font-size="9.00">response</text>
</g>
<!-- servicing -->
<g id="node7" class="node">
<title>servicing</title>
<path fill="none" stroke="black" d="M161.12,-238.61C161.12,-238.61 124.88,-238.61 124.88,-238.61 118.88,-238.61 112.88,-232.61 112.88,-226.61 112.88,-226.61 112.88,-214.61 112.88,-214.61 112.88,-208.61 118.88,-202.61 124.88,-202.61 124.88,-202.61 161.12,-202.61 161.12,-202.61 167.12,-202.61 173.12,-208.61 173.12,-214.61 173.12,-214.61 173.12,-226.61 173.12,-226.61 173.12,-232.61 167.12,-238.61 161.12,-238.61"/>
<text xml:space="preserve" text-anchor="middle" x="143" y="-223.86" font-family="Helvetica,sans-Serif" font-size="10.00">servicing</text>
<text xml:space="preserve" text-anchor="middle" x="143" y="-211.11" font-family="Helvetica,sans-Serif" font-size="10.00">(service)</text>
</g>
<!-- initing&#45;&gt;servicing -->
<g id="edge5" class="edge">
<title>initing&#45;&gt;servicing</title>
<path fill="none" stroke="black" d="M143,-296.71C143,-283.66 143,-265.51 143,-250.32"/>
<polygon fill="black" stroke="black" points="146.5,-250.44 143,-240.44 139.5,-250.44 146.5,-250.44"/>
<text xml:space="preserve" text-anchor="middle" x="168.5" y="-270.56" font-family="Helvetica,sans-Serif" font-size="9.00">initialise</text>
<text xml:space="preserve" text-anchor="middle" x="168.5" y="-259.31" font-family="Helvetica,sans-Serif" font-size="9.00">notification</text>
</g>
<!-- caching -->
<g id="node8" class="node">
<title>caching</title>
<path fill="none" stroke="black" d="M114,-132.86C114,-132.86 84,-132.86 84,-132.86 78,-132.86 72,-126.86 72,-120.86 72,-120.86 72,-108.86 72,-108.86 72,-102.86 78,-96.86 84,-96.86 84,-96.86 114,-96.86 114,-96.86 120,-96.86 126,-102.86 126,-108.86 126,-108.86 126,-120.86 126,-120.86 126,-126.86 120,-132.86 114,-132.86"/>
<text xml:space="preserve" text-anchor="middle" x="99" y="-118.11" font-family="Helvetica,sans-Serif" font-size="10.00">caching</text>
<text xml:space="preserve" text-anchor="middle" x="99" y="-105.36" font-family="Helvetica,sans-Serif" font-size="10.00">(cache)</text>
</g>
<!-- servicing&#45;&gt;caching -->
<g id="edge6" class="edge">
<title>servicing&#45;&gt;caching</title>
<path fill="none" stroke="black" d="M112.52,-216.04C92.74,-211.98 68.37,-203.26 55.75,-184.61 47.35,-172.18 49.29,-164.39 55.75,-150.86 57.71,-146.76 60.4,-142.98 63.5,-139.55"/>
<polygon fill="black" stroke="black" points="65.83,-142.17 70.74,-132.78 61.05,-137.06 65.83,-142.17"/>
<text xml:space="preserve" text-anchor="middle" x="88.38" y="-176.06" font-family="Helvetica,sans-Serif" font-size="9.00">list_changed,</text>
<text xml:space="preserve" text-anchor="middle" x="88.38" y="-164.81" font-family="Helvetica,sans-Serif" font-size="9.00">list_response,</text>
<text xml:space="preserve" text-anchor="middle" x="88.38" y="-153.56" font-family="Helvetica,sans-Serif" font-size="9.00">read_response</text>
</g>
<!-- llm -->
<g id="node9" class="node">
<title>llm</title>
<path fill="none" stroke="black" d="M240,-132.86C240,-132.86 210,-132.86 210,-132.86 204,-132.86 198,-126.86 198,-120.86 198,-120.86 198,-108.86 198,-108.86 198,-102.86 204,-96.86 210,-96.86 210,-96.86 240,-96.86 240,-96.86 246,-96.86 252,-102.86 252,-108.86 252,-108.86 252,-120.86 252,-120.86 252,-126.86 246,-132.86 240,-132.86"/>
<text xml:space="preserve" text-anchor="middle" x="225" y="-118.11" font-family="Helvetica,sans-Serif" font-size="10.00">llm</text>
<text xml:space="preserve" text-anchor="middle" x="225" y="-105.36" font-family="Helvetica,sans-Serif" font-size="10.00">(llm)</text>
</g>
<!-- servicing&#45;&gt;llm -->
<g id="edge8" class="edge">
<title>servicing&#45;&gt;llm</title>
<path fill="none" stroke="black" d="M173.58,-204.31C182.01,-198.98 190.59,-192.35 197,-184.61 206.66,-172.93 213.35,-157.48 217.77,-144.19"/>
<polygon fill="black" stroke="black" points="221.1,-145.24 220.64,-134.65 214.4,-143.22 221.1,-145.24"/>
<text xml:space="preserve" text-anchor="middle" x="233.27" y="-170.43" font-family="Helvetica,sans-Serif" font-size="9.00">tools</text>
<text xml:space="preserve" text-anchor="middle" x="233.27" y="-159.18" font-family="Helvetica,sans-Serif" font-size="9.00">reponse</text>
</g>
<!-- caching&#45;&gt;servicing -->
<g id="edge7" class="edge">
<title>caching&#45;&gt;servicing</title>
<path fill="none" stroke="black" d="M111.09,-133.17C114.59,-138.67 118.21,-144.87 121,-150.86 126.99,-163.73 131.99,-178.68 135.7,-191.34"/>
<polygon fill="black" stroke="black" points="132.26,-192.06 138.33,-200.74 139,-190.17 132.26,-192.06"/>
<text xml:space="preserve" text-anchor="middle" x="163.11" y="-170.43" font-family="Helvetica,sans-Serif" font-size="9.00">list_request,</text>
<text xml:space="preserve" text-anchor="middle" x="163.11" y="-159.18" font-family="Helvetica,sans-Serif" font-size="9.00">read_request</text>
</g>
<!-- llm&#45;&gt;end -->
<g id="edge9" class="edge">
<title>llm&#45;&gt;end</title>
<path fill="none" stroke="black" d="M225,-96.46C225,-86.36 225,-73.26 225,-61.09"/>
<polygon fill="black" stroke="black" points="228.5,-61.34 225,-51.34 221.5,-61.34 228.5,-61.34"/>
<text xml:space="preserve" text-anchor="middle" x="238.5" y="-70.31" font-family="Helvetica,sans-Serif" font-size="9.00">ouput</text>
</g>
</g>
</svg>
