<?xml version="1.0" encoding="UTF-8" standalone="no"?>
<!DOCTYPE svg PUBLIC "-//W3C//DTD SVG 1.1//EN"
 "http://www.w3.org/Graphics/SVG/1.1/DTD/svg11.dtd">
<!-- Generated by graphviz version 13.1.2 (20250808.2320)
 -->
<!-- Title: mcp Pages: 1 -->
<svg width="444pt" height="856pt"
 viewBox="0.00 0.00 444.00 856.00" xmlns="http://www.w3.org/2000/svg" xmlns:xlink="http://www.w3.org/1999/xlink">
<g id="graph0" class="graph" transform="scale(1 1) rotate(0) translate(4 852.22)">
<title>mcp</title>
<polygon fill="white" stroke="none" points="-4,4 -4,-852.22 439.86,-852.22 439.86,4 -4,4"/>
<!-- title -->
<g id="node1" class="node">
<title>title</title>
<text xml:space="preserve" text-anchor="start" x="17" y="-825.55" font-family="Helvetica,sans-Serif" font-size="14.00" fill="#666666">Orchestrates MCP protocol interactions</text>
</g>
<!-- start -->
<g id="node2" class="node">
<title>start</title>
<ellipse fill="lightgreen" stroke="black" cx="152" cy="-747.66" rx="23.56" ry="23.56"/>
<ellipse fill="none" stroke="black" cx="152" cy="-747.66" rx="27.56" ry="27.56"/>
<text xml:space="preserve" text-anchor="middle" x="152" y="-744.54" font-family="Helvetica,sans-Serif" font-size="10.00">start</text>
</g>
<!-- title&#45;&gt;start -->
<!-- starting -->
<g id="node4" class="node">
<title>starting</title>
<path fill="none" stroke="black" d="M167,-661.61C167,-661.61 137,-661.61 137,-661.61 131,-661.61 125,-655.61 125,-649.61 125,-649.61 125,-637.61 125,-637.61 125,-631.61 131,-625.61 137,-625.61 137,-625.61 167,-625.61 167,-625.61 173,-625.61 179,-631.61 179,-637.61 179,-637.61 179,-649.61 179,-649.61 179,-655.61 173,-661.61 167,-661.61"/>
<text xml:space="preserve" text-anchor="middle" x="152" y="-646.86" font-family="Helvetica,sans-Serif" font-size="10.00">starting</text>
<text xml:space="preserve" text-anchor="middle" x="152" y="-634.11" font-family="Helvetica,sans-Serif" font-size="10.00">(start)</text>
</g>
<!-- start&#45;&gt;starting -->
<g id="edge2" class="edge">
<title>start&#45;&gt;starting</title>
<path fill="none" stroke="black" d="M152,-719.85C152,-705.55 152,-687.94 152,-673.35"/>
<polygon fill="black" stroke="black" points="155.5,-673.47 152,-663.47 148.5,-673.47 155.5,-673.47"/>
<text xml:space="preserve" text-anchor="middle" x="269.38" y="-693.56" font-family="Helvetica,sans-Serif" font-size="9.00">document</text>
<text xml:space="preserve" text-anchor="middle" x="269.38" y="-682.31" font-family="Helvetica,sans-Serif" font-size="9.00">starts the MCP service. Returns an initialise&#45;request.</text>
</g>
<!-- end -->
<g id="node3" class="node">
<title>end</title>
<ellipse fill="lightcoral" stroke="black" cx="189" cy="-24.8" rx="20.8" ry="20.8"/>
<ellipse fill="none" stroke="black" cx="189" cy="-24.8" rx="24.8" ry="24.8"/>
<text xml:space="preserve" text-anchor="middle" x="189" y="-21.68" font-family="Helvetica,sans-Serif" font-size="10.00">end</text>
</g>
<!-- shedding -->
<g id="node5" class="node">
<title>shedding</title>
<path fill="none" stroke="black" d="M170.12,-544.61C170.12,-544.61 133.88,-544.61 133.88,-544.61 127.88,-544.61 121.88,-538.61 121.88,-532.61 121.88,-532.61 121.88,-520.61 121.88,-520.61 121.88,-514.61 127.88,-508.61 133.88,-508.61 133.88,-508.61 170.12,-508.61 170.12,-508.61 176.12,-508.61 182.12,-514.61 182.12,-520.61 182.12,-520.61 182.12,-532.61 182.12,-532.61 182.12,-538.61 176.12,-544.61 170.12,-544.61"/>
<text xml:space="preserve" text-anchor="middle" x="152" y="-529.86" font-family="Helvetica,sans-Serif" font-size="10.00">shedding</text>
<text xml:space="preserve" text-anchor="middle" x="152" y="-517.11" font-family="Helvetica,sans-Serif" font-size="10.00">(shed)</text>
</g>
<!-- starting&#45;&gt;shedding -->
<g id="edge3" class="edge">
<title>starting&#45;&gt;shedding</title>
<path fill="none" stroke="black" d="M152,-625.14C152,-606.88 152,-577.93 152,-556.31"/>
<polygon fill="black" stroke="black" points="155.5,-556.37 152,-546.37 148.5,-556.37 155.5,-556.37"/>
<text xml:space="preserve" text-anchor="middle" x="242.38" y="-599.06" font-family="Helvetica,sans-Serif" font-size="9.00">initialise</text>
<text xml:space="preserve" text-anchor="middle" x="242.38" y="-587.81" font-family="Helvetica,sans-Serif" font-size="9.00">request</text>
<text xml:space="preserve" text-anchor="middle" x="242.38" y="-576.56" font-family="Helvetica,sans-Serif" font-size="9.00">(timeout)</text>
<text xml:space="preserve" text-anchor="middle" x="242.38" y="-565.31" font-family="Helvetica,sans-Serif" font-size="9.00">Shed unwanted list&#45;changed messages.</text>
</g>
<!-- initing -->
<g id="node6" class="node">
<title>initing</title>
<path fill="none" stroke="black" d="M167,-450.11C167,-450.11 137,-450.11 137,-450.11 131,-450.11 125,-444.11 125,-438.11 125,-438.11 125,-426.11 125,-426.11 125,-420.11 131,-414.11 137,-414.11 137,-414.11 167,-414.11 167,-414.11 173,-414.11 179,-420.11 179,-426.11 179,-426.11 179,-438.11 179,-438.11 179,-444.11 173,-450.11 167,-450.11"/>
<text xml:space="preserve" text-anchor="middle" x="152" y="-435.36" font-family="Helvetica,sans-Serif" font-size="10.00">initing</text>
<text xml:space="preserve" text-anchor="middle" x="152" y="-422.61" font-family="Helvetica,sans-Serif" font-size="10.00">(init)</text>
</g>
<!-- shedding&#45;&gt;initing -->
<g id="edge4" class="edge">
<title>shedding&#45;&gt;initing</title>
<path fill="none" stroke="black" d="M152,-508.21C152,-495.16 152,-477.01 152,-461.82"/>
<polygon fill="black" stroke="black" points="155.5,-461.94 152,-451.94 148.5,-461.94 155.5,-461.94"/>
<text xml:space="preserve" text-anchor="middle" x="172.25" y="-482.06" font-family="Helvetica,sans-Serif" font-size="9.00">initialise</text>
<text xml:space="preserve" text-anchor="middle" x="172.25" y="-470.81" font-family="Helvetica,sans-Serif" font-size="9.00">response</text>
</g>
<!-- servicing -->
<g id="node7" class="node">
<title>servicing</title>
<path fill="none" stroke="black" d="M170.12,-355.61C170.12,-355.61 133.88,-355.61 133.88,-355.61 127.88,-355.61 121.88,-349.61 121.88,-343.61 121.88,-343.61 121.88,-331.61 121.88,-331.61 121.88,-325.61 127.88,-319.61 133.88,-319.61 133.88,-319.61 170.12,-319.61 170.12,-319.61 176.12,-319.61 182.12,-325.61 182.12,-331.61 182.12,-331.61 182.12,-343.61 182.12,-343.61 182.12,-349.61 176.12,-355.61 170.12,-355.61"/>
<text xml:space="preserve" text-anchor="middle" x="152" y="-340.86" font-family="Helvetica,sans-Serif" font-size="10.00">servicing</text>
<text xml:space="preserve" text-anchor="middle" x="152" y="-328.11" font-family="Helvetica,sans-Serif" font-size="10.00">(service)</text>
</g>
<!-- initing&#45;&gt;servicing -->
<g id="edge5" class="edge">
<title>initing&#45;&gt;servicing</title>
<path fill="none" stroke="black" d="M152,-413.71C152,-400.66 152,-382.51 152,-367.32"/>
<polygon fill="black" stroke="black" points="155.5,-367.44 152,-357.44 148.5,-367.44 155.5,-367.44"/>
<text xml:space="preserve" text-anchor="middle" x="177.5" y="-387.56" font-family="Helvetica,sans-Serif" font-size="9.00">initialise</text>
<text xml:space="preserve" text-anchor="middle" x="177.5" y="-376.31" font-family="Helvetica,sans-Serif" font-size="9.00">notification</text>
</g>
<!-- caching -->
<g id="node8" class="node">
<title>caching</title>
<path fill="none" stroke="black" d="M42,-249.86C42,-249.86 12,-249.86 12,-249.86 6,-249.86 0,-243.86 0,-237.86 0,-237.86 0,-225.86 0,-225.86 0,-219.86 6,-213.86 12,-213.86 12,-213.86 42,-213.86 42,-213.86 48,-213.86 54,-219.86 54,-225.86 54,-225.86 54,-237.86 54,-237.86 54,-243.86 48,-249.86 42,-249.86"/>
<text xml:space="preserve" text-anchor="middle" x="27" y="-235.11" font-family="Helvetica,sans-Serif" font-size="10.00">caching</text>
<text xml:space="preserve" text-anchor="middle" x="27" y="-222.36" font-family="Helvetica,sans-Serif" font-size="10.00">(cache)</text>
</g>
<!-- servicing&#45;&gt;caching -->
<g id="edge6" class="edge">
<title>servicing&#45;&gt;caching</title>
<path fill="none" stroke="black" d="M121.51,-332.24C88.54,-326.83 39.13,-316.46 27.75,-301.61 19.16,-290.39 18.35,-274.86 19.97,-261.39"/>
<polygon fill="black" stroke="black" points="23.38,-262.19 21.62,-251.74 16.48,-261.01 23.38,-262.19"/>
<text xml:space="preserve" text-anchor="middle" x="60.38" y="-293.06" font-family="Helvetica,sans-Serif" font-size="9.00">list_changed,</text>
<text xml:space="preserve" text-anchor="middle" x="60.38" y="-281.81" font-family="Helvetica,sans-Serif" font-size="9.00">list_response,</text>
<text xml:space="preserve" text-anchor="middle" x="60.38" y="-270.56" font-family="Helvetica,sans-Serif" font-size="9.00">read_response</text>
</g>
<!-- llm -->
<g id="node9" class="node">
<title>llm</title>
<path fill="none" stroke="black" d="M204,-144.11C204,-144.11 174,-144.11 174,-144.11 168,-144.11 162,-138.11 162,-132.11 162,-132.11 162,-120.11 162,-120.11 162,-114.11 168,-108.11 174,-108.11 174,-108.11 204,-108.11 204,-108.11 210,-108.11 216,-114.11 216,-120.11 216,-120.11 216,-132.11 216,-132.11 216,-138.11 210,-144.11 204,-144.11"/>
<text xml:space="preserve" text-anchor="middle" x="189" y="-129.36" font-family="Helvetica,sans-Serif" font-size="10.00">llm</text>
<text xml:space="preserve" text-anchor="middle" x="189" y="-116.61" font-family="Helvetica,sans-Serif" font-size="10.00">(llm)</text>
</g>
<!-- servicing&#45;&gt;llm -->
<g id="edge8" class="edge">
<title>servicing&#45;&gt;llm</title>
<path fill="none" stroke="black" d="M165.79,-319.35C169.4,-313.96 172.88,-307.8 175,-301.61 191.86,-252.49 192.45,-191.21 190.98,-155.88"/>
<polygon fill="black" stroke="black" points="194.48,-155.84 190.47,-146.04 187.49,-156.2 194.48,-155.84"/>
<text xml:space="preserve" text-anchor="middle" x="259.79" y="-240.18" font-family="Helvetica,sans-Serif" font-size="9.00">tool</text>
<text xml:space="preserve" text-anchor="middle" x="259.79" y="-228.93" font-family="Helvetica,sans-Serif" font-size="9.00">response</text>
<text xml:space="preserve" text-anchor="middle" x="259.79" y="-217.68" font-family="Helvetica,sans-Serif" font-size="9.00">Tool response returning to LLM</text>
</g>
<!-- caching&#45;&gt;servicing -->
<g id="edge7" class="edge">
<title>caching&#45;&gt;servicing</title>
<path fill="none" stroke="black" d="M54.27,-243.63C66.96,-249.52 81.72,-257.71 93,-267.86 106.45,-279.96 104.12,-287.75 115.75,-301.61 118.44,-304.81 121.39,-308.04 124.4,-311.17"/>
<polygon fill="black" stroke="black" points="121.79,-313.51 131.35,-318.08 126.73,-308.55 121.79,-313.51"/>
<text xml:space="preserve" text-anchor="middle" x="145.38" y="-287.43" font-family="Helvetica,sans-Serif" font-size="9.00">list_request,</text>
<text xml:space="preserve" text-anchor="middle" x="145.38" y="-276.18" font-family="Helvetica,sans-Serif" font-size="9.00">read_request</text>
</g>
<!-- caching&#45;&gt;llm -->
<g id="edge9" class="edge">
<title>caching&#45;&gt;llm</title>
<path fill="none" stroke="black" d="M17.68,-213.37C11.01,-198.17 5.07,-176.4 16.75,-162.11 33.31,-141.84 105.04,-133.02 150.55,-129.4"/>
<polygon fill="black" stroke="black" points="150.56,-132.91 160.28,-128.68 150.05,-125.93 150.56,-132.91"/>
<text xml:space="preserve" text-anchor="middle" x="95.88" y="-187.31" font-family="Helvetica,sans-Serif" font-size="9.00">cache</text>
<text xml:space="preserve" text-anchor="middle" x="95.88" y="-176.06" font-family="Helvetica,sans-Serif" font-size="9.00">ready</text>
<text xml:space="preserve" text-anchor="middle" x="95.88" y="-164.81" font-family="Helvetica,sans-Serif" font-size="9.00">Cache is ready, LLM can start work</text>
</g>
<!-- llm&#45;&gt;end -->
<g id="edge11" class="edge">
<title>llm&#45;&gt;end</title>
<path fill="none" stroke="black" d="M189,-107.81C189,-94.93 189,-76.91 189,-61.04"/>
<polygon fill="black" stroke="black" points="192.5,-61.48 189,-51.48 185.5,-61.48 192.5,-61.48"/>
<text xml:space="preserve" text-anchor="middle" x="235.12" y="-81.56" font-family="Helvetica,sans-Serif" font-size="9.00">output</text>
<text xml:space="preserve" text-anchor="middle" x="235.12" y="-70.31" font-family="Helvetica,sans-Serif" font-size="9.00">LLM completes work</text>
</g>
<!-- llm&#45;&gt;servicing -->
<g id="edge10" class="edge">
<title>llm&#45;&gt;servicing</title>
<path fill="none" stroke="black" d="M216.22,-135.73C266.75,-153.24 366.96,-195.93 333,-249.86 302.58,-298.17 236.95,-320.18 193.64,-329.76"/>
<polygon fill="black" stroke="black" points="193.18,-326.28 184.09,-331.73 194.59,-333.14 193.18,-326.28"/>
<text xml:space="preserve" text-anchor="middle" x="387.86" y="-240.18" font-family="Helvetica,sans-Serif" font-size="9.00">tool</text>
<text xml:space="preserve" text-anchor="middle" x="387.86" y="-228.93" font-family="Helvetica,sans-Serif" font-size="9.00">call</text>
<text xml:space="preserve" text-anchor="middle" x="387.86" y="-217.68" font-family="Helvetica,sans-Serif" font-size="9.00">LLM makes a tool call</text>
</g>
</g>
</svg>
