<?xml version="1.0" encoding="UTF-8" standalone="no"?>
<!DOCTYPE svg PUBLIC "-//W3C//DTD SVG 1.1//EN"
 "http://www.w3.org/Graphics/SVG/1.1/DTD/svg11.dtd">
<!-- Generated by graphviz version 13.1.2 (20250808.2320)
 -->
<!-- Title: society Pages: 1 -->
<svg width="1229pt" height="326pt"
 viewBox="0.00 0.00 1229.00 326.00" xmlns="http://www.w3.org/2000/svg" xmlns:xlink="http://www.w3.org/1999/xlink">
<g id="graph0" class="graph" transform="scale(1 1) rotate(0) translate(4 322.47)">
<title>society</title>
<polygon fill="white" stroke="none" points="-4,4 -4,-322.47 1224.5,-322.47 1224.5,4 -4,4"/>
<!-- title -->
<g id="node1" class="node">
<title>title</title>
<text xml:space="preserve" text-anchor="start" x="8" y="-295.8" font-family="Helvetica,sans-Serif" font-size="14.00" fill="#666666">You are CLAIJ, a society of LLMs working together to provide helpful responses.\nEach LLM brings unique perspectives and capabilities to answer questions comprehensively.</text>
</g>
<!-- start -->
<g id="node2" class="node">
<title>start</title>
<ellipse fill="lightgreen" stroke="black" cx="610.25" cy="-217.91" rx="23.56" ry="23.56"/>
<ellipse fill="none" stroke="black" cx="610.25" cy="-217.91" rx="27.56" ry="27.56"/>
<text xml:space="preserve" text-anchor="middle" x="610.25" y="-214.79" font-family="Helvetica,sans-Serif" font-size="10.00">start</text>
</g>
<!-- title&#45;&gt;start -->
<!-- chairman -->
<g id="node4" class="node">
<title>chairman</title>
<path fill="none" stroke="black" d="M809.12,-143.11C809.12,-143.11 411.38,-143.11 411.38,-143.11 405.38,-143.11 399.38,-137.11 399.38,-131.11 399.38,-131.11 399.38,-108.86 399.38,-108.86 399.38,-102.86 405.38,-96.86 411.38,-96.86 411.38,-96.86 809.12,-96.86 809.12,-96.86 815.12,-96.86 821.12,-102.86 821.12,-108.86 821.12,-108.86 821.12,-131.11 821.12,-131.11 821.12,-137.11 815.12,-143.11 809.12,-143.11"/>
<text xml:space="preserve" text-anchor="middle" x="610.25" y="-129.61" font-family="Helvetica,sans-Serif" font-size="10.00">chairman</text>
<text xml:space="preserve" text-anchor="middle" x="610.25" y="-116.86" font-family="Helvetica,sans-Serif" font-size="10.00">(llm)</text>
<text xml:space="preserve" text-anchor="middle" x="610.25" y="-104.11" font-family="Helvetica,sans-Serif" font-size="10.00">You are the Chairman of CLAIJ, coordinating a society of LLMs. When you receive ...</text>
</g>
<!-- start&#45;&gt;chairman -->
<g id="edge2" class="edge">
<title>start&#45;&gt;chairman</title>
<path fill="none" stroke="black" d="M610.25,-189.94C610.25,-179.08 610.25,-166.43 610.25,-154.96"/>
<polygon fill="black" stroke="black" points="613.75,-155.06 610.25,-145.06 606.75,-155.06 613.75,-155.06"/>
<text xml:space="preserve" text-anchor="middle" x="631.62" y="-163.81" font-family="Helvetica,sans-Serif" font-size="9.00">chairman</text>
</g>
<!-- end -->
<g id="node3" class="node">
<title>end</title>
<ellipse fill="lightcoral" stroke="black" cx="418.25" cy="-24.8" rx="20.8" ry="20.8"/>
<ellipse fill="none" stroke="black" cx="418.25" cy="-24.8" rx="24.8" ry="24.8"/>
<text xml:space="preserve" text-anchor="middle" x="418.25" y="-21.68" font-family="Helvetica,sans-Serif" font-size="10.00">end</text>
</g>
<!-- chairman&#45;&gt;end -->
<g id="edge5" class="edge">
<title>chairman&#45;&gt;end</title>
<path fill="none" stroke="black" d="M551.51,-96.43C521.18,-83.98 483.98,-67.45 452.25,-49.61 450.61,-48.68 448.95,-47.7 447.29,-46.68"/>
<polygon fill="black" stroke="black" points="449.51,-43.95 439.23,-41.41 445.68,-49.81 449.51,-43.95"/>
<text xml:space="preserve" text-anchor="middle" x="515.92" y="-70.31" font-family="Helvetica,sans-Serif" font-size="9.00">end</text>
</g>
<!-- reviewer -->
<g id="node5" class="node">
<title>reviewer</title>
<path fill="none" stroke="black" d="M869,-47.93C869,-47.93 473.5,-47.93 473.5,-47.93 467.5,-47.93 461.5,-41.93 461.5,-35.93 461.5,-35.93 461.5,-13.68 461.5,-13.68 461.5,-7.68 467.5,-1.68 473.5,-1.68 473.5,-1.68 869,-1.68 869,-1.68 875,-1.68 881,-7.68 881,-13.68 881,-13.68 881,-35.93 881,-35.93 881,-41.93 875,-47.93 869,-47.93"/>
<text xml:space="preserve" text-anchor="middle" x="671.25" y="-34.43" font-family="Helvetica,sans-Serif" font-size="10.00">reviewer</text>
<text xml:space="preserve" text-anchor="middle" x="671.25" y="-21.68" font-family="Helvetica,sans-Serif" font-size="10.00">(llm)</text>
<text xml:space="preserve" text-anchor="middle" x="671.25" y="-8.93" font-family="Helvetica,sans-Serif" font-size="10.00">You are a member of the CLAIJ society, contributing your unique perspective. You...</text>
</g>
<!-- chairman&#45;&gt;reviewer -->
<g id="edge3" class="edge">
<title>chairman&#45;&gt;reviewer</title>
<path fill="none" stroke="black" d="M606.2,-96.36C605.6,-86.97 606.39,-76.27 611,-67.61 613.26,-63.37 616.15,-59.48 619.45,-55.92"/>
<polygon fill="black" stroke="black" points="621.71,-58.6 626.67,-49.23 616.95,-53.46 621.71,-58.6"/>
<text xml:space="preserve" text-anchor="middle" x="630.12" y="-70.31" font-family="Helvetica,sans-Serif" font-size="9.00">reviewer</text>
</g>
<!-- reviewer&#45;&gt;chairman -->
<g id="edge4" class="edge">
<title>reviewer&#45;&gt;chairman</title>
<path fill="none" stroke="black" d="M664.03,-48.42C660.37,-58.21 655.39,-69.53 649.25,-78.86 647.22,-81.94 644.93,-84.99 642.51,-87.95"/>
<polygon fill="black" stroke="black" points="639.95,-85.56 635.96,-95.38 645.2,-90.2 639.95,-85.56"/>
<text xml:space="preserve" text-anchor="middle" x="676.89" y="-70.31" font-family="Helvetica,sans-Serif" font-size="9.00">chairman</text>
</g>
</g>
</svg>
