<?xml version="1.0" encoding="UTF-8" standalone="no"?>
<!DOCTYPE svg PUBLIC "-//W3C//DTD SVG 1.1//EN"
 "http://www.w3.org/Graphics/SVG/1.1/DTD/svg11.dtd">
<!-- Generated by graphviz version 12.2.1 (20241206.2353)
 -->
<!-- Title: FSM Pages: 1 -->
<svg width="365pt" height="709pt"
 viewBox="0.00 0.00 365.00 709.00" xmlns="http://www.w3.org/2000/svg" xmlns:xlink="http://www.w3.org/1999/xlink">
<g id="graph0" class="graph" transform="scale(1 1) rotate(0) translate(4 705)">
<title>FSM</title>
<polygon fill="white" stroke="none" points="-4,4 -4,-705 361,-705 361,4 -4,4"/>
<g id="clust1" class="cluster">
<title>cluster_main</title>
<polygon fill="lightgrey" stroke="lightgrey" points="8,-8 8,-693 349,-693 349,-8 8,-8"/>
<text text-anchor="middle" x="178.5" y="-675.7" font-family="Times,serif" font-size="14.00">Story Processing FSM</text>
</g>
<g id="clust2" class="cluster">
<title>cluster_subfsm</title>
<polygon fill="none" stroke="lightyellow" stroke-dasharray="5,2" points="16,-512 16,-660.5 205,-660.5 205,-512 16,-512"/>
<text text-anchor="middle" x="110.5" y="-643.2" font-family="Times,serif" font-size="14.00">Assign &amp; Implement Sub&#45;FSM</text>
</g>
<!-- Start -->
<g id="node1" class="node">
<title>Start</title>
<path fill="none" stroke="black" d="M327,-628C327,-628 227,-628 227,-628 221,-628 215,-622 215,-616 215,-616 215,-604 215,-604 215,-598 221,-592 227,-592 227,-592 327,-592 327,-592 333,-592 339,-598 339,-604 339,-604 339,-616 339,-616 339,-622 333,-628 327,-628"/>
<text text-anchor="middle" x="277" y="-611.75" font-family="Times,serif" font-size="10.00">Start</text>
<text text-anchor="middle" x="277" y="-600.5" font-family="Times,serif" font-size="10.00">Ready&#45;for&#45;Dev Not Empty</text>
</g>
<!-- Pick -->
<g id="node2" class="node">
<title>Pick</title>
<path fill="none" stroke="black" d="M328.5,-556C328.5,-556 225.5,-556 225.5,-556 219.5,-556 213.5,-550 213.5,-544 213.5,-544 213.5,-532 213.5,-532 213.5,-526 219.5,-520 225.5,-520 225.5,-520 328.5,-520 328.5,-520 334.5,-520 340.5,-526 340.5,-532 340.5,-532 340.5,-544 340.5,-544 340.5,-550 334.5,-556 328.5,-556"/>
<text text-anchor="middle" x="277" y="-539.75" font-family="Times,serif" font-size="10.00">Take Highest Priority Story</text>
<text text-anchor="middle" x="277" y="-528.5" font-family="Times,serif" font-size="10.00">from Ready&#45;for&#45;Dev</text>
</g>
<!-- Start&#45;&gt;Pick -->
<g id="edge1" class="edge">
<title>Start&#45;&gt;Pick</title>
<path fill="none" stroke="black" d="M277,-591.7C277,-584.32 277,-575.52 277,-567.25"/>
<polygon fill="black" stroke="black" points="277,-557.32 281.5,-567.32 277,-561.1 277,-567.32 277,-567.32 277,-567.32 277,-561.1 272.5,-567.32 277,-557.32"/>
</g>
<!-- MoveDev -->
<g id="node3" class="node">
<title>MoveDev</title>
<path fill="none" stroke="black" d="M300,-484C300,-484 254,-484 254,-484 248,-484 242,-478 242,-472 242,-472 242,-460 242,-460 242,-454 248,-448 254,-448 254,-448 300,-448 300,-448 306,-448 312,-454 312,-460 312,-460 312,-472 312,-472 312,-478 306,-484 300,-484"/>
<text text-anchor="middle" x="277" y="-462.12" font-family="Times,serif" font-size="10.00">Move to Dev</text>
</g>
<!-- Pick&#45;&gt;MoveDev -->
<g id="edge2" class="edge">
<title>Pick&#45;&gt;MoveDev</title>
<path fill="none" stroke="black" d="M277,-519.7C277,-512.32 277,-503.52 277,-495.25"/>
<polygon fill="black" stroke="black" points="277,-485.32 281.5,-495.32 277,-489.1 277,-495.32 277,-495.32 277,-495.32 277,-489.1 272.5,-495.32 277,-485.32"/>
</g>
<!-- Break -->
<g id="node4" class="node">
<title>Break</title>
<path fill="none" stroke="black" d="M318.38,-412C318.38,-412 235.62,-412 235.62,-412 229.62,-412 223.62,-406 223.62,-400 223.62,-400 223.62,-388 223.62,-388 223.62,-382 229.62,-376 235.62,-376 235.62,-376 318.38,-376 318.38,-376 324.38,-376 330.38,-382 330.38,-388 330.38,-388 330.38,-400 330.38,-400 330.38,-406 324.38,-412 318.38,-412"/>
<text text-anchor="middle" x="277" y="-395.75" font-family="Times,serif" font-size="10.00">Collaboratively Break</text>
<text text-anchor="middle" x="277" y="-384.5" font-family="Times,serif" font-size="10.00">into Granular Tasks</text>
</g>
<!-- MoveDev&#45;&gt;Break -->
<g id="edge3" class="edge">
<title>MoveDev&#45;&gt;Break</title>
<path fill="none" stroke="black" d="M277,-447.7C277,-440.32 277,-431.52 277,-423.25"/>
<polygon fill="black" stroke="black" points="277,-413.32 281.5,-423.32 277,-417.1 277,-423.32 277,-423.32 277,-423.32 277,-417.1 272.5,-423.32 277,-413.32"/>
</g>
<!-- AssignImpl -->
<g id="node5" class="node">
<title>AssignImpl</title>
<path fill="none" stroke="black" d="M327.38,-340C327.38,-340 226.62,-340 226.62,-340 220.62,-340 214.62,-334 214.62,-328 214.62,-328 214.62,-316 214.62,-316 214.62,-310 220.62,-304 226.62,-304 226.62,-304 327.38,-304 327.38,-304 333.38,-304 339.38,-310 339.38,-316 339.38,-316 339.38,-328 339.38,-328 339.38,-334 333.38,-340 327.38,-340"/>
<text text-anchor="middle" x="277" y="-318.12" font-family="Times,serif" font-size="10.00">Assign &amp; Implement Tasks</text>
</g>
<!-- Break&#45;&gt;AssignImpl -->
<g id="edge4" class="edge">
<title>Break&#45;&gt;AssignImpl</title>
<path fill="none" stroke="black" d="M277,-375.7C277,-368.32 277,-359.52 277,-351.25"/>
<polygon fill="black" stroke="black" points="277,-341.32 281.5,-351.32 277,-345.1 277,-351.32 277,-351.32 277,-351.32 277,-345.1 272.5,-351.32 277,-341.32"/>
</g>
<!-- MoveComplete -->
<g id="node6" class="node">
<title>MoveComplete</title>
<path fill="none" stroke="black" d="M321.38,-268C321.38,-268 232.62,-268 232.62,-268 226.62,-268 220.62,-262 220.62,-256 220.62,-256 220.62,-244 220.62,-244 220.62,-238 226.62,-232 232.62,-232 232.62,-232 321.38,-232 321.38,-232 327.38,-232 333.38,-238 333.38,-244 333.38,-244 333.38,-256 333.38,-256 333.38,-262 327.38,-268 321.38,-268"/>
<text text-anchor="middle" x="277" y="-246.12" font-family="Times,serif" font-size="10.00">Move to Dev&#45;Complete</text>
</g>
<!-- AssignImpl&#45;&gt;MoveComplete -->
<g id="edge5" class="edge">
<title>AssignImpl&#45;&gt;MoveComplete</title>
<path fill="none" stroke="black" d="M277,-303.7C277,-296.32 277,-287.52 277,-279.25"/>
<polygon fill="black" stroke="black" points="277,-269.32 281.5,-279.32 277,-273.1 277,-279.32 277,-279.32 277,-279.32 277,-273.1 272.5,-279.32 277,-269.32"/>
</g>
<!-- IntTest -->
<g id="node7" class="node">
<title>IntTest</title>
<path fill="none" stroke="black" d="M304.88,-196C304.88,-196 249.12,-196 249.12,-196 243.12,-196 237.12,-190 237.12,-184 237.12,-184 237.12,-172 237.12,-172 237.12,-166 243.12,-160 249.12,-160 249.12,-160 304.88,-160 304.88,-160 310.88,-160 316.88,-166 316.88,-172 316.88,-172 316.88,-184 316.88,-184 316.88,-190 310.88,-196 304.88,-196"/>
<text text-anchor="middle" x="277" y="-174.12" font-family="Times,serif" font-size="10.00">Integration Test</text>
</g>
<!-- MoveComplete&#45;&gt;IntTest -->
<g id="edge6" class="edge">
<title>MoveComplete&#45;&gt;IntTest</title>
<path fill="none" stroke="black" d="M277,-231.7C277,-224.32 277,-215.52 277,-207.25"/>
<polygon fill="black" stroke="black" points="277,-197.32 281.5,-207.32 277,-201.1 277,-207.32 277,-207.32 277,-207.32 277,-201.1 272.5,-207.32 277,-197.32"/>
</g>
<!-- MoveDone -->
<g id="node8" class="node">
<title>MoveDone</title>
<path fill="none" stroke="black" d="M302.62,-124C302.62,-124 251.38,-124 251.38,-124 245.38,-124 239.38,-118 239.38,-112 239.38,-112 239.38,-100 239.38,-100 239.38,-94 245.38,-88 251.38,-88 251.38,-88 302.62,-88 302.62,-88 308.62,-88 314.62,-94 314.62,-100 314.62,-100 314.62,-112 314.62,-112 314.62,-118 308.62,-124 302.62,-124"/>
<text text-anchor="middle" x="277" y="-102.12" font-family="Times,serif" font-size="10.00">Move to Done</text>
</g>
<!-- IntTest&#45;&gt;MoveDone -->
<g id="edge7" class="edge">
<title>IntTest&#45;&gt;MoveDone</title>
<path fill="none" stroke="black" d="M277,-159.7C277,-152.32 277,-143.52 277,-135.25"/>
<polygon fill="black" stroke="black" points="277,-125.32 281.5,-135.32 277,-129.1 277,-135.32 277,-135.32 277,-135.32 277,-129.1 272.5,-135.32 277,-125.32"/>
</g>
<!-- End -->
<g id="node9" class="node">
<title>End</title>
<path fill="none" stroke="black" d="M315,-52C315,-52 239,-52 239,-52 233,-52 227,-46 227,-40 227,-40 227,-28 227,-28 227,-22 233,-16 239,-16 239,-16 315,-16 315,-16 321,-16 327,-22 327,-28 327,-28 327,-40 327,-40 327,-46 321,-52 315,-52"/>
<text text-anchor="middle" x="277" y="-35.75" font-family="Times,serif" font-size="10.00">End</text>
<text text-anchor="middle" x="277" y="-24.5" font-family="Times,serif" font-size="10.00">Loop if More Stories</text>
</g>
<!-- MoveDone&#45;&gt;End -->
<g id="edge8" class="edge">
<title>MoveDone&#45;&gt;End</title>
<path fill="none" stroke="black" d="M277,-87.7C277,-80.32 277,-71.52 277,-63.25"/>
<polygon fill="black" stroke="black" points="277,-53.32 281.5,-63.32 277,-57.1 277,-63.32 277,-63.32 277,-63.32 277,-57.1 272.5,-63.32 277,-53.32"/>
</g>
<!-- Assign -->
<g id="node10" class="node">
<title>Assign</title>
<path fill="none" stroke="black" d="M131.62,-628C131.62,-628 86.38,-628 86.38,-628 80.38,-628 74.38,-622 74.38,-616 74.38,-616 74.38,-604 74.38,-604 74.38,-598 80.38,-592 86.38,-592 86.38,-592 131.62,-592 131.62,-592 137.62,-592 143.62,-598 143.62,-604 143.62,-604 143.62,-616 143.62,-616 143.62,-622 137.62,-628 131.62,-628"/>
<text text-anchor="middle" x="109" y="-606.12" font-family="Times,serif" font-size="10.00">Assign Tasks</text>
</g>
<!-- Impl -->
<g id="node11" class="node">
<title>Impl</title>
<path fill="none" stroke="black" d="M147,-556C147,-556 71,-556 71,-556 65,-556 59,-550 59,-544 59,-544 59,-532 59,-532 59,-526 65,-520 71,-520 71,-520 147,-520 147,-520 153,-520 159,-526 159,-532 159,-532 159,-544 159,-544 159,-550 153,-556 147,-556"/>
<text text-anchor="middle" x="109" y="-534.12" font-family="Times,serif" font-size="10.00">Implement All Tasks</text>
</g>
<!-- Assign&#45;&gt;Impl -->
<g id="edge9" class="edge">
<title>Assign&#45;&gt;Impl</title>
<path fill="none" stroke="black" d="M109,-591.7C109,-584.32 109,-575.52 109,-567.25"/>
<polygon fill="black" stroke="black" points="109,-557.32 113.5,-567.32 109,-561.1 109,-567.32 109,-567.32 109,-567.32 109,-561.1 104.5,-567.32 109,-557.32"/>
</g>
</g>
</svg>
