<?xml version="1.0" encoding="UTF-8" standalone="no"?>
<!DOCTYPE svg PUBLIC "-//W3C//DTD SVG 1.1//EN"
 "http://www.w3.org/Graphics/SVG/1.1/DTD/svg11.dtd">
<!-- Generated by graphviz version 12.2.1 (20241206.2353)
 -->
<!-- Title: FSM Pages: 1 -->
<svg width="601pt" height="1108pt"
 viewBox="0.00 0.00 601.00 1107.50" xmlns="http://www.w3.org/2000/svg" xmlns:xlink="http://www.w3.org/1999/xlink">
<g id="graph0" class="graph" transform="scale(1 1) rotate(0) translate(4 1103.5)">
<title>FSM</title>
<polygon fill="white" stroke="none" points="-4,4 -4,-1103.5 597,-1103.5 597,4 -4,4"/>
<g id="clust1" class="cluster">
<title>cluster_root</title>
<polygon fill="lightgrey" stroke="lightgrey" points="8,-8 8,-1091.5 585,-1091.5 585,-8 8,-8"/>
<text text-anchor="middle" x="296.5" y="-1074.2" font-family="Times,serif" font-size="14.00">Kanban LLM Coding Society</text>
</g>
<g id="clust2" class="cluster">
<title>cluster_meta</title>
<polygon fill="lightblue" stroke="lightblue" points="317,-193 317,-358 577,-358 577,-193 317,-193"/>
<text text-anchor="middle" x="447" y="-340.7" font-family="Times,serif" font-size="14.00">Meta&#45;Loop (Trigger: Ready&#45;for&#45;Dev Empty)</text>
</g>
<g id="clust3" class="cluster">
<title>cluster_story</title>
<polygon fill="lightgreen" stroke="lightgreen" points="16,-16 16,-1059 309,-1059 309,-16 16,-16"/>
<text text-anchor="middle" x="162.5" y="-1041.7" font-family="Times,serif" font-size="14.00">Story Loop (Per Ticket, on Main)</text>
</g>
<g id="clust4" class="cluster">
<title>cluster_api</title>
<polygon fill="none" stroke="lightyellow" stroke-dasharray="5,2" points="24,-658 24,-1026.5 160,-1026.5 160,-658 24,-658"/>
<text text-anchor="middle" x="92" y="-1009.2" font-family="Times,serif" font-size="14.00">API Design Sub&#45;FSM</text>
</g>
<g id="clust5" class="cluster">
<title>cluster_impl</title>
<polygon fill="none" stroke="lightyellow" stroke-dasharray="5,2" points="168,-731 168,-1026.5 301,-1026.5 301,-731 168,-731"/>
<text text-anchor="middle" x="234.5" y="-1009.2" font-family="Times,serif" font-size="14.00">Implement Sub&#45;FSM</text>
</g>
<!-- Retro -->
<g id="node1" class="node">
<title>Retro</title>
<path fill="none" stroke="black" d="M444.75,-325.5C444.75,-325.5 349.25,-325.5 349.25,-325.5 343.25,-325.5 337.25,-319.5 337.25,-313.5 337.25,-313.5 337.25,-301.5 337.25,-301.5 337.25,-295.5 343.25,-289.5 349.25,-289.5 349.25,-289.5 444.75,-289.5 444.75,-289.5 450.75,-289.5 456.75,-295.5 456.75,-301.5 456.75,-301.5 456.75,-313.5 456.75,-313.5 456.75,-319.5 450.75,-325.5 444.75,-325.5"/>
<text text-anchor="middle" x="397" y="-309.25" font-family="Times,serif" font-size="10.00">Retrospective</text>
<text text-anchor="middle" x="397" y="-298" font-family="Times,serif" font-size="10.00">Review jams, tweak rules</text>
</g>
<!-- Plan -->
<g id="node2" class="node">
<title>Plan</title>
<path fill="none" stroke="black" d="M528.75,-237C528.75,-237 337.25,-237 337.25,-237 331.25,-237 325.25,-231 325.25,-225 325.25,-225 325.25,-213 325.25,-213 325.25,-207 331.25,-201 337.25,-201 337.25,-201 528.75,-201 528.75,-201 534.75,-201 540.75,-207 540.75,-213 540.75,-213 540.75,-225 540.75,-225 540.75,-231 534.75,-237 528.75,-237"/>
<text text-anchor="middle" x="433" y="-220.75" font-family="Times,serif" font-size="10.00">Planning Refill</text>
<text text-anchor="middle" x="433" y="-209.5" font-family="Times,serif" font-size="10.00">Pull backlog, size, prioritize, load Ready&#45;for&#45;Dev</text>
</g>
<!-- Retro&#45;&gt;Plan -->
<g id="edge1" class="edge">
<title>Retro&#45;&gt;Plan</title>
<path fill="none" stroke="black" d="M404.11,-289.41C409.06,-277.52 415.77,-261.41 421.47,-247.7"/>
<polygon fill="black" stroke="black" points="425.31,-238.48 425.62,-249.44 423.86,-241.97 421.47,-247.71 421.47,-247.71 421.47,-247.71 423.86,-241.97 417.31,-245.98 425.31,-238.48"/>
</g>
<!-- Start -->
<g id="node3" class="node">
<title>Start</title>
<path fill="none" stroke="black" d="M256,-325.5C256,-325.5 156,-325.5 156,-325.5 150,-325.5 144,-319.5 144,-313.5 144,-313.5 144,-301.5 144,-301.5 144,-295.5 150,-289.5 156,-289.5 156,-289.5 256,-289.5 256,-289.5 262,-289.5 268,-295.5 268,-301.5 268,-301.5 268,-313.5 268,-313.5 268,-319.5 262,-325.5 256,-325.5"/>
<text text-anchor="middle" x="206" y="-309.25" font-family="Times,serif" font-size="10.00">Start</text>
<text text-anchor="middle" x="206" y="-298" font-family="Times,serif" font-size="10.00">Ready&#45;for&#45;Dev Not Empty</text>
</g>
<!-- Plan&#45;&gt;Start -->
<g id="edge17" class="edge">
<title>Plan&#45;&gt;Start</title>
<path fill="none" stroke="black" d="M388.78,-237.49C363.18,-247.56 330.33,-260.38 301,-271.5 289.18,-275.98 276.5,-280.71 264.38,-285.19"/>
<polygon fill="black" stroke="black" points="255.05,-288.63 262.88,-280.95 258.6,-287.32 264.43,-285.17 264.43,-285.17 264.43,-285.17 258.6,-287.32 265.99,-289.39 255.05,-288.63"/>
<text text-anchor="middle" x="372.5" y="-258.2" font-family="Times,serif" font-size="14.00">After Refill</text>
</g>
<!-- Pick -->
<g id="node4" class="node">
<title>Pick</title>
<path fill="none" stroke="black" d="M223.62,-237C223.62,-237 166.38,-237 166.38,-237 160.38,-237 154.38,-231 154.38,-225 154.38,-225 154.38,-213 154.38,-213 154.38,-207 160.38,-201 166.38,-201 166.38,-201 223.62,-201 223.62,-201 229.62,-201 235.62,-207 235.62,-213 235.62,-213 235.62,-225 235.62,-225 235.62,-231 229.62,-237 223.62,-237"/>
<text text-anchor="middle" x="195" y="-220.75" font-family="Times,serif" font-size="10.00">1. Pick Story</text>
<text text-anchor="middle" x="195" y="-209.5" font-family="Times,serif" font-size="10.00">Highest Priority</text>
</g>
<!-- Start&#45;&gt;Pick -->
<g id="edge2" class="edge">
<title>Start&#45;&gt;Pick</title>
<path fill="none" stroke="black" d="M203.83,-289.41C202.33,-277.64 200.31,-261.73 198.57,-248.11"/>
<polygon fill="black" stroke="black" points="197.36,-238.56 203.09,-247.91 197.84,-242.31 198.62,-248.48 198.62,-248.48 198.62,-248.48 197.84,-242.31 194.16,-249.05 197.36,-238.56"/>
<text text-anchor="middle" x="249.11" y="-258.2" font-family="Times,serif" font-size="14.00">Loop until empty</text>
</g>
<!-- Zone -->
<g id="node5" class="node">
<title>Zone</title>
<path fill="none" stroke="black" d="M231.38,-148.5C231.38,-148.5 124.62,-148.5 124.62,-148.5 118.62,-148.5 112.62,-142.5 112.62,-136.5 112.62,-136.5 112.62,-124.5 112.62,-124.5 112.62,-118.5 118.62,-112.5 124.62,-112.5 124.62,-112.5 231.38,-112.5 231.38,-112.5 237.38,-112.5 243.38,-118.5 243.38,-124.5 243.38,-124.5 243.38,-136.5 243.38,-136.5 243.38,-142.5 237.38,-148.5 231.38,-148.5"/>
<text text-anchor="middle" x="178" y="-132.25" font-family="Times,serif" font-size="10.00">2. Zone Check</text>
<text text-anchor="middle" x="178" y="-121" font-family="Times,serif" font-size="10.00">Lock areas, queue if conflict</text>
</g>
<!-- Pick&#45;&gt;Zone -->
<g id="edge3" class="edge">
<title>Pick&#45;&gt;Zone</title>
<path fill="none" stroke="black" d="M191.64,-200.91C189.33,-189.14 186.2,-173.23 183.52,-159.61"/>
<polygon fill="black" stroke="black" points="181.64,-150.05 187.99,-158.99 182.37,-153.76 183.57,-159.86 183.57,-159.86 183.57,-159.86 182.37,-153.76 179.16,-160.73 181.64,-150.05"/>
<text text-anchor="middle" x="235.65" y="-169.7" font-family="Times,serif" font-size="14.00">Loop until empty</text>
</g>
<!-- API -->
<g id="node6" class="node">
<title>API</title>
<path fill="none" stroke="black" d="M141.5,-60C141.5,-60 92.5,-60 92.5,-60 86.5,-60 80.5,-54 80.5,-48 80.5,-48 80.5,-36 80.5,-36 80.5,-30 86.5,-24 92.5,-24 92.5,-24 141.5,-24 141.5,-24 147.5,-24 153.5,-30 153.5,-36 153.5,-36 153.5,-48 153.5,-48 153.5,-54 147.5,-60 141.5,-60"/>
<text text-anchor="middle" x="117" y="-38.12" font-family="Times,serif" font-size="10.00">3. API Design</text>
</g>
<!-- Zone&#45;&gt;API -->
<g id="edge4" class="edge">
<title>Zone&#45;&gt;API</title>
<path fill="none" stroke="black" d="M165.95,-112.41C157.32,-100.17 145.52,-83.45 135.68,-69.49"/>
<polygon fill="black" stroke="black" points="129.94,-61.35 139.38,-66.92 132.12,-64.44 135.7,-69.52 135.7,-69.52 135.7,-69.52 132.12,-64.44 132.02,-72.11 129.94,-61.35"/>
<text text-anchor="middle" x="200.59" y="-81.2" font-family="Times,serif" font-size="14.00">Loop until empty</text>
</g>
<!-- Impl -->
<g id="node7" class="node">
<title>Impl</title>
<path fill="none" stroke="black" d="M118.62,-702C118.62,-702 73.38,-702 73.38,-702 67.38,-702 61.38,-696 61.38,-690 61.38,-690 61.38,-678 61.38,-678 61.38,-672 67.38,-666 73.38,-666 73.38,-666 118.62,-666 118.62,-666 124.62,-666 130.62,-672 130.62,-678 130.62,-678 130.62,-690 130.62,-690 130.62,-696 124.62,-702 118.62,-702"/>
<text text-anchor="middle" x="96" y="-680.12" font-family="Times,serif" font-size="10.00">4. Implement</text>
</g>
<!-- API&#45;&gt;Impl -->
<g id="edge5" class="edge">
<title>API&#45;&gt;Impl</title>
<path fill="none" stroke="black" d="M107.5,-60.32C99.05,-77.39 88,-104.47 88,-129.5 88,-596.5 88,-596.5 88,-596.5 88,-616.11 90.06,-638.11 92.09,-655.01"/>
<polygon fill="black" stroke="black" points="93.31,-664.6 87.59,-655.25 92.84,-660.85 92.05,-654.68 92.05,-654.68 92.05,-654.68 92.84,-660.85 96.52,-654.11 93.31,-664.6"/>
<text text-anchor="middle" x="135.62" y="-369.2" font-family="Times,serif" font-size="14.00">Loop until empty</text>
</g>
<!-- Test -->
<g id="node8" class="node">
<title>Test</title>
<path fill="none" stroke="black" d="M185,-613.5C185,-613.5 155,-613.5 155,-613.5 149,-613.5 143,-607.5 143,-601.5 143,-601.5 143,-589.5 143,-589.5 143,-583.5 149,-577.5 155,-577.5 155,-577.5 185,-577.5 185,-577.5 191,-577.5 197,-583.5 197,-589.5 197,-589.5 197,-601.5 197,-601.5 197,-607.5 191,-613.5 185,-613.5"/>
<text text-anchor="middle" x="170" y="-591.62" font-family="Times,serif" font-size="10.00">5. Test</text>
</g>
<!-- Impl&#45;&gt;Test -->
<g id="edge6" class="edge">
<title>Impl&#45;&gt;Test</title>
<path fill="none" stroke="black" d="M110.62,-665.91C121.29,-653.43 135.95,-636.3 148.03,-622.18"/>
<polygon fill="black" stroke="black" points="154.37,-614.78 151.28,-625.3 151.91,-617.65 147.86,-622.37 147.86,-622.37 147.86,-622.37 151.91,-617.65 144.44,-619.45 154.37,-614.78"/>
<text text-anchor="middle" x="187.25" y="-634.7" font-family="Times,serif" font-size="14.00">Loop until empty</text>
</g>
<!-- Merge -->
<g id="node9" class="node">
<title>Merge</title>
<path fill="none" stroke="black" d="M207.62,-525C207.62,-525 150.38,-525 150.38,-525 144.38,-525 138.38,-519 138.38,-513 138.38,-513 138.38,-501 138.38,-501 138.38,-495 144.38,-489 150.38,-489 150.38,-489 207.62,-489 207.62,-489 213.62,-489 219.62,-495 219.62,-501 219.62,-501 219.62,-513 219.62,-513 219.62,-519 213.62,-525 207.62,-525"/>
<text text-anchor="middle" x="179" y="-508.75" font-family="Times,serif" font-size="10.00">6. Merge</text>
<text text-anchor="middle" x="179" y="-497.5" font-family="Times,serif" font-size="10.00">Atomic to Main</text>
</g>
<!-- Test&#45;&gt;Merge -->
<g id="edge7" class="edge">
<title>Test&#45;&gt;Merge</title>
<path fill="none" stroke="black" d="M171.78,-577.41C173,-565.64 174.66,-549.73 176.08,-536.11"/>
<polygon fill="black" stroke="black" points="177.07,-526.56 180.51,-536.97 176.68,-530.32 176.03,-536.51 176.03,-536.51 176.03,-536.51 176.68,-530.32 171.56,-536.04 177.07,-526.56"/>
<text text-anchor="middle" x="222.93" y="-546.2" font-family="Times,serif" font-size="14.00">Loop until empty</text>
</g>
<!-- Close -->
<g id="node10" class="node">
<title>Close</title>
<path fill="none" stroke="black" d="M221,-436.5C221,-436.5 191,-436.5 191,-436.5 185,-436.5 179,-430.5 179,-424.5 179,-424.5 179,-412.5 179,-412.5 179,-406.5 185,-400.5 191,-400.5 191,-400.5 221,-400.5 221,-400.5 227,-400.5 233,-406.5 233,-412.5 233,-412.5 233,-424.5 233,-424.5 233,-430.5 227,-436.5 221,-436.5"/>
<text text-anchor="middle" x="206" y="-420.25" font-family="Times,serif" font-size="10.00">7. Close</text>
<text text-anchor="middle" x="206" y="-409" font-family="Times,serif" font-size="10.00">To Done</text>
</g>
<!-- Merge&#45;&gt;Close -->
<g id="edge8" class="edge">
<title>Merge&#45;&gt;Close</title>
<path fill="none" stroke="black" d="M184.33,-488.91C188.05,-477.02 193.07,-460.91 197.35,-447.2"/>
<polygon fill="black" stroke="black" points="200.22,-438.01 201.54,-448.9 199.09,-441.62 197.24,-447.56 197.24,-447.56 197.24,-447.56 199.09,-441.62 192.95,-446.22 200.22,-438.01"/>
<text text-anchor="middle" x="242.54" y="-457.7" font-family="Times,serif" font-size="14.00">Loop until empty</text>
</g>
<!-- Close&#45;&gt;Retro -->
<g id="edge18" class="edge">
<title>Close&#45;&gt;Retro</title>
<path fill="none" stroke="black" stroke-dasharray="5,2" d="M233.1,-410.6C253.61,-404.76 282.07,-395.28 305,-382.5 329.31,-368.95 353.71,-348.95 371.27,-333.16"/>
<polygon fill="black" stroke="black" points="378.41,-326.62 374.08,-336.69 375.63,-329.17 371.04,-333.38 371.04,-333.38 371.04,-333.38 375.63,-329.17 368,-330.06 378.41,-326.62"/>
<text text-anchor="middle" x="354.26" y="-369.2" font-family="Times,serif" font-size="14.00">If Empty</text>
</g>
<!-- Close&#45;&gt;Start -->
<g id="edge9" class="edge">
<title>Close&#45;&gt;Start</title>
<path fill="none" stroke="black" d="M206,-400.47C206,-383.45 206,-356.99 206,-336.81"/>
<polygon fill="black" stroke="black" points="206,-326.99 210.5,-336.99 206,-330.77 206,-336.99 206,-336.99 206,-336.99 206,-330.77 201.5,-336.99 206,-326.99"/>
<text text-anchor="middle" x="253.62" y="-369.2" font-family="Times,serif" font-size="14.00">Loop until empty</text>
</g>
<!-- Suggest -->
<g id="node11" class="node">
<title>Suggest</title>
<path fill="none" stroke="black" d="M131.75,-994C131.75,-994 60.25,-994 60.25,-994 54.25,-994 48.25,-988 48.25,-982 48.25,-982 48.25,-970 48.25,-970 48.25,-964 54.25,-958 60.25,-958 60.25,-958 131.75,-958 131.75,-958 137.75,-958 143.75,-964 143.75,-970 143.75,-970 143.75,-982 143.75,-982 143.75,-988 137.75,-994 131.75,-994"/>
<text text-anchor="middle" x="96" y="-972.12" font-family="Times,serif" font-size="10.00">Gather Suggestions</text>
</g>
<!-- Clump -->
<g id="node12" class="node">
<title>Clump</title>
<path fill="none" stroke="black" d="M128.38,-921C128.38,-921 63.62,-921 63.62,-921 57.62,-921 51.62,-915 51.62,-909 51.62,-909 51.62,-897 51.62,-897 51.62,-891 57.62,-885 63.62,-885 63.62,-885 128.38,-885 128.38,-885 134.38,-885 140.38,-891 140.38,-897 140.38,-897 140.38,-909 140.38,-909 140.38,-915 134.38,-921 128.38,-921"/>
<text text-anchor="middle" x="96" y="-899.12" font-family="Times,serif" font-size="10.00">MC Clumps Ideas</text>
</g>
<!-- Suggest&#45;&gt;Clump -->
<g id="edge10" class="edge">
<title>Suggest&#45;&gt;Clump</title>
<path fill="none" stroke="black" d="M96,-957.81C96,-950.14 96,-940.89 96,-932.24"/>
<polygon fill="black" stroke="black" points="96,-922.25 100.5,-932.25 96,-926.03 96,-932.25 96,-932.25 96,-932.25 96,-926.03 91.5,-932.25 96,-922.25"/>
</g>
<!-- Vote -->
<g id="node13" class="node">
<title>Vote</title>
<path fill="none" stroke="black" d="M111,-848C111,-848 81,-848 81,-848 75,-848 69,-842 69,-836 69,-836 69,-824 69,-824 69,-818 75,-812 81,-812 81,-812 111,-812 111,-812 117,-812 123,-818 123,-824 123,-824 123,-836 123,-836 123,-842 117,-848 111,-848"/>
<text text-anchor="middle" x="96" y="-826.12" font-family="Times,serif" font-size="10.00">Vote</text>
</g>
<!-- Clump&#45;&gt;Vote -->
<g id="edge11" class="edge">
<title>Clump&#45;&gt;Vote</title>
<path fill="none" stroke="black" d="M96,-884.81C96,-877.14 96,-867.89 96,-859.24"/>
<polygon fill="black" stroke="black" points="96,-849.25 100.5,-859.25 96,-853.03 96,-859.25 96,-859.25 96,-859.25 96,-853.03 91.5,-859.25 96,-849.25"/>
</g>
<!-- Lock -->
<g id="node14" class="node">
<title>Lock</title>
<path fill="none" stroke="black" d="M121.25,-775C121.25,-775 70.75,-775 70.75,-775 64.75,-775 58.75,-769 58.75,-763 58.75,-763 58.75,-751 58.75,-751 58.75,-745 64.75,-739 70.75,-739 70.75,-739 121.25,-739 121.25,-739 127.25,-739 133.25,-745 133.25,-751 133.25,-751 133.25,-763 133.25,-763 133.25,-769 127.25,-775 121.25,-775"/>
<text text-anchor="middle" x="96" y="-753.12" font-family="Times,serif" font-size="10.00">Lock Contract</text>
</g>
<!-- Vote&#45;&gt;Lock -->
<g id="edge12" class="edge">
<title>Vote&#45;&gt;Lock</title>
<path fill="none" stroke="black" d="M96,-811.81C96,-804.14 96,-794.89 96,-786.24"/>
<polygon fill="black" stroke="black" points="96,-776.25 100.5,-786.25 96,-780.03 96,-786.25 96,-786.25 96,-786.25 96,-780.03 91.5,-786.25 96,-776.25"/>
</g>
<!-- Lock&#45;&gt;Impl -->
<!-- Code -->
<g id="node15" class="node">
<title>Code</title>
<path fill="none" stroke="black" d="M253.25,-994C253.25,-994 214.75,-994 214.75,-994 208.75,-994 202.75,-988 202.75,-982 202.75,-982 202.75,-970 202.75,-970 202.75,-964 208.75,-958 214.75,-958 214.75,-958 253.25,-958 253.25,-958 259.25,-958 265.25,-964 265.25,-970 265.25,-970 265.25,-982 265.25,-982 265.25,-988 259.25,-994 253.25,-994"/>
<text text-anchor="middle" x="234" y="-972.12" font-family="Times,serif" font-size="10.00">Coder Role</text>
</g>
<!-- Tester -->
<g id="node16" class="node">
<title>Tester</title>
<path fill="none" stroke="black" d="M252.88,-921C252.88,-921 215.12,-921 215.12,-921 209.12,-921 203.12,-915 203.12,-909 203.12,-909 203.12,-897 203.12,-897 203.12,-891 209.12,-885 215.12,-885 215.12,-885 252.88,-885 252.88,-885 258.88,-885 264.88,-891 264.88,-897 264.88,-897 264.88,-909 264.88,-909 264.88,-915 258.88,-921 252.88,-921"/>
<text text-anchor="middle" x="234" y="-899.12" font-family="Times,serif" font-size="10.00">Tester Role</text>
</g>
<!-- Code&#45;&gt;Tester -->
<!-- Doc -->
<g id="node17" class="node">
<title>Doc</title>
<path fill="none" stroke="black" d="M266,-848C266,-848 202,-848 202,-848 196,-848 190,-842 190,-836 190,-836 190,-824 190,-824 190,-818 196,-812 202,-812 202,-812 266,-812 266,-812 272,-812 278,-818 278,-824 278,-824 278,-836 278,-836 278,-842 272,-848 266,-848"/>
<text text-anchor="middle" x="234" y="-826.12" font-family="Times,serif" font-size="10.00">Documenter Role</text>
</g>
<!-- Tester&#45;&gt;Doc -->
<!-- Tool -->
<g id="node18" class="node">
<title>Tool</title>
<path fill="none" stroke="black" d="M263.75,-775C263.75,-775 204.25,-775 204.25,-775 198.25,-775 192.25,-769 192.25,-763 192.25,-763 192.25,-751 192.25,-751 192.25,-745 198.25,-739 204.25,-739 204.25,-739 263.75,-739 263.75,-739 269.75,-739 275.75,-745 275.75,-751 275.75,-751 275.75,-763 275.75,-763 275.75,-769 269.75,-775 263.75,-775"/>
<text text-anchor="middle" x="234" y="-758.75" font-family="Times,serif" font-size="10.00">Toolsmith</text>
<text text-anchor="middle" x="234" y="-747.5" font-family="Times,serif" font-size="10.00">Scan for patterns</text>
</g>
<!-- Doc&#45;&gt;Tool -->
</g>
</svg>
