<?xml version="1.0" encoding="UTF-8" standalone="no"?>
<!DOCTYPE svg PUBLIC "-//W3C//DTD SVG 1.1//EN"
 "http://www.w3.org/Graphics/SVG/1.1/DTD/svg11.dtd">
<!-- Generated by graphviz version 13.1.2 (20250808.2320)
 -->
<!-- Title: bmad&#45;converter Pages: 1 -->
<svg width="1490pt" height="981pt"
 viewBox="0.00 0.00 1490.00 981.00" xmlns="http://www.w3.org/2000/svg" xmlns:xlink="http://www.w3.org/1999/xlink">
<g id="graph0" class="graph" transform="scale(1 1) rotate(0) translate(4 976.97)">
<title>bmad&#45;converter</title>
<polygon fill="white" stroke="none" points="-4,4 -4,-976.97 1485.5,-976.97 1485.5,4 -4,4"/>
<!-- title -->
<g id="node1" class="node">
<title>title</title>
<text xml:space="preserve" text-anchor="start" x="8" y="-950.3" font-family="Helvetica,sans-Serif" font-size="14.00" fill="#666666">You are a meta&#45;FSM that converts BMAD workflows to CLAIJ FSMs.\nYou have access to file reading tools and can analyze BMAD structure.\nYour goal is to produce a working CLAIJ FSM data structure (not code!).</text>
</g>
<!-- start -->
<g id="node2" class="node">
<title>start</title>
<ellipse fill="lightgreen" stroke="black" cx="740.75" cy="-872.41" rx="23.56" ry="23.56"/>
<ellipse fill="none" stroke="black" cx="740.75" cy="-872.41" rx="27.56" ry="27.56"/>
<text xml:space="preserve" text-anchor="middle" x="740.75" y="-869.29" font-family="Helvetica,sans-Serif" font-size="10.00">start</text>
</g>
<!-- title&#45;&gt;start -->
<!-- init -->
<g id="node4" class="node">
<title>init</title>
<path fill="none" stroke="black" d="M941.12,-797.61C941.12,-797.61 540.38,-797.61 540.38,-797.61 534.38,-797.61 528.38,-791.61 528.38,-785.61 528.38,-785.61 528.38,-763.36 528.38,-763.36 528.38,-757.36 534.38,-751.36 540.38,-751.36 540.38,-751.36 941.12,-751.36 941.12,-751.36 947.12,-751.36 953.12,-757.36 953.12,-763.36 953.12,-763.36 953.12,-785.61 953.12,-785.61 953.12,-791.61 947.12,-797.61 941.12,-797.61"/>
<text xml:space="preserve" text-anchor="middle" x="740.75" y="-784.11" font-family="Helvetica,sans-Serif" font-size="10.00">init</text>
<text xml:space="preserve" text-anchor="middle" x="740.75" y="-771.36" font-family="Helvetica,sans-Serif" font-size="10.00">(llm)</text>
<text xml:space="preserve" text-anchor="middle" x="740.75" y="-758.61" font-family="Helvetica,sans-Serif" font-size="10.00">You are starting a BMAD to CLAIJ FSM conversion. &#160;**Your Task:** 1. Acknowledge ...</text>
</g>
<!-- start&#45;&gt;init -->
<g id="edge2" class="edge">
<title>start&#45;&gt;init</title>
<path fill="none" stroke="black" d="M740.75,-844.44C740.75,-833.58 740.75,-820.93 740.75,-809.46"/>
<polygon fill="black" stroke="black" points="744.25,-809.56 740.75,-799.56 737.25,-809.56 744.25,-809.56"/>
<text xml:space="preserve" text-anchor="middle" x="747.88" y="-818.31" font-family="Helvetica,sans-Serif" font-size="9.00">init</text>
</g>
<!-- end -->
<g id="node3" class="node">
<title>end</title>
<ellipse fill="lightcoral" stroke="black" cx="740.75" cy="-24.8" rx="20.8" ry="20.8"/>
<ellipse fill="none" stroke="black" cx="740.75" cy="-24.8" rx="24.8" ry="24.8"/>
<text xml:space="preserve" text-anchor="middle" x="740.75" y="-21.68" font-family="Helvetica,sans-Serif" font-size="10.00">end</text>
</g>
<!-- analyze&#45;workflow -->
<g id="node5" class="node">
<title>analyze&#45;workflow</title>
<path fill="none" stroke="black" d="M943,-704.11C943,-704.11 538.5,-704.11 538.5,-704.11 532.5,-704.11 526.5,-698.11 526.5,-692.11 526.5,-692.11 526.5,-669.86 526.5,-669.86 526.5,-663.86 532.5,-657.86 538.5,-657.86 538.5,-657.86 943,-657.86 943,-657.86 949,-657.86 955,-663.86 955,-669.86 955,-669.86 955,-692.11 955,-692.11 955,-698.11 949,-704.11 943,-704.11"/>
<text xml:space="preserve" text-anchor="middle" x="740.75" y="-690.61" font-family="Helvetica,sans-Serif" font-size="10.00">analyze&#45;workflow</text>
<text xml:space="preserve" text-anchor="middle" x="740.75" y="-677.86" font-family="Helvetica,sans-Serif" font-size="10.00">(llm)</text>
<text xml:space="preserve" text-anchor="middle" x="740.75" y="-665.11" font-family="Helvetica,sans-Serif" font-size="10.00">**Step 1/7: Analyze Workflow Structure** &#160;Workflow path: {{workflow&#45;path}} &#160;**Yo...</text>
</g>
<!-- init&#45;&gt;analyze&#45;workflow -->
<g id="edge3" class="edge">
<title>init&#45;&gt;analyze&#45;workflow</title>
<path fill="none" stroke="black" d="M740.75,-750.86C740.75,-740.23 740.75,-727.33 740.75,-715.58"/>
<polygon fill="black" stroke="black" points="744.25,-715.85 740.75,-705.85 737.25,-715.85 744.25,-715.85"/>
<text xml:space="preserve" text-anchor="middle" x="779.38" y="-724.81" font-family="Helvetica,sans-Serif" font-size="9.00">analyze&#45;workflow</text>
</g>
<!-- extract&#45;persona -->
<g id="node6" class="node">
<title>extract&#45;persona</title>
<path fill="none" stroke="black" d="M932.12,-610.61C932.12,-610.61 549.38,-610.61 549.38,-610.61 543.38,-610.61 537.38,-604.61 537.38,-598.61 537.38,-598.61 537.38,-576.36 537.38,-576.36 537.38,-570.36 543.38,-564.36 549.38,-564.36 549.38,-564.36 932.12,-564.36 932.12,-564.36 938.12,-564.36 944.12,-570.36 944.12,-576.36 944.12,-576.36 944.12,-598.61 944.12,-598.61 944.12,-604.61 938.12,-610.61 932.12,-610.61"/>
<text xml:space="preserve" text-anchor="middle" x="740.75" y="-597.11" font-family="Helvetica,sans-Serif" font-size="10.00">extract&#45;persona</text>
<text xml:space="preserve" text-anchor="middle" x="740.75" y="-584.36" font-family="Helvetica,sans-Serif" font-size="10.00">(llm)</text>
<text xml:space="preserve" text-anchor="middle" x="740.75" y="-571.61" font-family="Helvetica,sans-Serif" font-size="10.00">**Step 2/7: Extract Agent Persona** &#160;Agent file: {{agent&#45;file}} &#160;**Your Task:** ...</text>
</g>
<!-- analyze&#45;workflow&#45;&gt;extract&#45;persona -->
<g id="edge4" class="edge">
<title>analyze&#45;workflow&#45;&gt;extract&#45;persona</title>
<path fill="none" stroke="black" d="M740.75,-657.36C740.75,-646.73 740.75,-633.83 740.75,-622.08"/>
<polygon fill="black" stroke="black" points="744.25,-622.35 740.75,-612.35 737.25,-622.35 744.25,-622.35"/>
<text xml:space="preserve" text-anchor="middle" x="776.38" y="-631.31" font-family="Helvetica,sans-Serif" font-size="9.00">extract&#45;persona</text>
</g>
<!-- extract&#45;standards -->
<g id="node7" class="node">
<title>extract&#45;standards</title>
<path fill="none" stroke="black" d="M940,-517.11C940,-517.11 541.5,-517.11 541.5,-517.11 535.5,-517.11 529.5,-511.11 529.5,-505.11 529.5,-505.11 529.5,-482.86 529.5,-482.86 529.5,-476.86 535.5,-470.86 541.5,-470.86 541.5,-470.86 940,-470.86 940,-470.86 946,-470.86 952,-476.86 952,-482.86 952,-482.86 952,-505.11 952,-505.11 952,-511.11 946,-517.11 940,-517.11"/>
<text xml:space="preserve" text-anchor="middle" x="740.75" y="-503.61" font-family="Helvetica,sans-Serif" font-size="10.00">extract&#45;standards</text>
<text xml:space="preserve" text-anchor="middle" x="740.75" y="-490.86" font-family="Helvetica,sans-Serif" font-size="10.00">(llm)</text>
<text xml:space="preserve" text-anchor="middle" x="740.75" y="-478.11" font-family="Helvetica,sans-Serif" font-size="10.00">**Step 3/7: Extract Standards** &#160;Has standards: {{has&#45;standards}} &#160;**Your Task:*...</text>
</g>
<!-- extract&#45;persona&#45;&gt;extract&#45;standards -->
<g id="edge5" class="edge">
<title>extract&#45;persona&#45;&gt;extract&#45;standards</title>
<path fill="none" stroke="black" d="M740.75,-563.86C740.75,-553.23 740.75,-540.33 740.75,-528.58"/>
<polygon fill="black" stroke="black" points="744.25,-528.85 740.75,-518.85 737.25,-528.85 744.25,-528.85"/>
<text xml:space="preserve" text-anchor="middle" x="780.88" y="-537.81" font-family="Helvetica,sans-Serif" font-size="9.00">extract&#45;standards</text>
</g>
<!-- build&#45;schemas -->
<g id="node8" class="node">
<title>build&#45;schemas</title>
<path fill="none" stroke="black" d="M932.12,-423.61C932.12,-423.61 549.38,-423.61 549.38,-423.61 543.38,-423.61 537.38,-417.61 537.38,-411.61 537.38,-411.61 537.38,-389.36 537.38,-389.36 537.38,-383.36 543.38,-377.36 549.38,-377.36 549.38,-377.36 932.12,-377.36 932.12,-377.36 938.12,-377.36 944.12,-383.36 944.12,-389.36 944.12,-389.36 944.12,-411.61 944.12,-411.61 944.12,-417.61 938.12,-423.61 932.12,-423.61"/>
<text xml:space="preserve" text-anchor="middle" x="740.75" y="-410.11" font-family="Helvetica,sans-Serif" font-size="10.00">build&#45;schemas</text>
<text xml:space="preserve" text-anchor="middle" x="740.75" y="-397.36" font-family="Helvetica,sans-Serif" font-size="10.00">(llm)</text>
<text xml:space="preserve" text-anchor="middle" x="740.75" y="-384.61" font-family="Helvetica,sans-Serif" font-size="10.00">**Step 4/7: Build JSON Schemas** &#160;Step files: {{step&#45;files}} &#160;**Your Task:** &#160;1....</text>
</g>
<!-- extract&#45;standards&#45;&gt;build&#45;schemas -->
<g id="edge6" class="edge">
<title>extract&#45;standards&#45;&gt;build&#45;schemas</title>
<path fill="none" stroke="black" d="M740.75,-470.36C740.75,-459.73 740.75,-446.83 740.75,-435.08"/>
<polygon fill="black" stroke="black" points="744.25,-435.35 740.75,-425.35 737.25,-435.35 744.25,-435.35"/>
<text xml:space="preserve" text-anchor="middle" x="773.38" y="-444.31" font-family="Helvetica,sans-Serif" font-size="9.00">build&#45;schemas</text>
</g>
<!-- build&#45;states -->
<g id="node9" class="node">
<title>build&#45;states</title>
<path fill="none" stroke="black" d="M934.75,-330.11C934.75,-330.11 546.75,-330.11 546.75,-330.11 540.75,-330.11 534.75,-324.11 534.75,-318.11 534.75,-318.11 534.75,-295.86 534.75,-295.86 534.75,-289.86 540.75,-283.86 546.75,-283.86 546.75,-283.86 934.75,-283.86 934.75,-283.86 940.75,-283.86 946.75,-289.86 946.75,-295.86 946.75,-295.86 946.75,-318.11 946.75,-318.11 946.75,-324.11 940.75,-330.11 934.75,-330.11"/>
<text xml:space="preserve" text-anchor="middle" x="740.75" y="-316.61" font-family="Helvetica,sans-Serif" font-size="10.00">build&#45;states</text>
<text xml:space="preserve" text-anchor="middle" x="740.75" y="-303.86" font-family="Helvetica,sans-Serif" font-size="10.00">(llm)</text>
<text xml:space="preserve" text-anchor="middle" x="740.75" y="-291.11" font-family="Helvetica,sans-Serif" font-size="10.00">**Step 5/7: Build FSM States** &#160;Step files: {{step&#45;files}} Persona: {{persona&#45;te...</text>
</g>
<!-- build&#45;schemas&#45;&gt;build&#45;states -->
<g id="edge7" class="edge">
<title>build&#45;schemas&#45;&gt;build&#45;states</title>
<path fill="none" stroke="black" d="M740.75,-376.86C740.75,-366.23 740.75,-353.33 740.75,-341.58"/>
<polygon fill="black" stroke="black" points="744.25,-341.85 740.75,-331.85 737.25,-341.85 744.25,-341.85"/>
<text xml:space="preserve" text-anchor="middle" x="767" y="-350.81" font-family="Helvetica,sans-Serif" font-size="9.00">build&#45;states</text>
</g>
<!-- assemble&#45;fsm -->
<g id="node10" class="node">
<title>assemble&#45;fsm</title>
<path fill="none" stroke="black" d="M942.62,-236.61C942.62,-236.61 538.88,-236.61 538.88,-236.61 532.88,-236.61 526.88,-230.61 526.88,-224.61 526.88,-224.61 526.88,-202.36 526.88,-202.36 526.88,-196.36 532.88,-190.36 538.88,-190.36 538.88,-190.36 942.62,-190.36 942.62,-190.36 948.62,-190.36 954.62,-196.36 954.62,-202.36 954.62,-202.36 954.62,-224.61 954.62,-224.61 954.62,-230.61 948.62,-236.61 942.62,-236.61"/>
<text xml:space="preserve" text-anchor="middle" x="740.75" y="-223.11" font-family="Helvetica,sans-Serif" font-size="10.00">assemble&#45;fsm</text>
<text xml:space="preserve" text-anchor="middle" x="740.75" y="-210.36" font-family="Helvetica,sans-Serif" font-size="10.00">(llm)</text>
<text xml:space="preserve" text-anchor="middle" x="740.75" y="-197.61" font-family="Helvetica,sans-Serif" font-size="10.00">**Step 6/7: Assemble Complete FSM** &#160;**Your Task:** &#160;Combine all the pieces into...</text>
</g>
<!-- build&#45;states&#45;&gt;assemble&#45;fsm -->
<g id="edge8" class="edge">
<title>build&#45;states&#45;&gt;assemble&#45;fsm</title>
<path fill="none" stroke="black" d="M740.75,-283.36C740.75,-272.73 740.75,-259.83 740.75,-248.08"/>
<polygon fill="black" stroke="black" points="744.25,-248.35 740.75,-238.35 737.25,-248.35 744.25,-248.35"/>
<text xml:space="preserve" text-anchor="middle" x="771.5" y="-257.31" font-family="Helvetica,sans-Serif" font-size="9.00">assemble&#45;fsm</text>
</g>
<!-- validate -->
<g id="node11" class="node">
<title>validate</title>
<path fill="none" stroke="black" d="M936.62,-143.11C936.62,-143.11 544.88,-143.11 544.88,-143.11 538.88,-143.11 532.88,-137.11 532.88,-131.11 532.88,-131.11 532.88,-108.86 532.88,-108.86 532.88,-102.86 538.88,-96.86 544.88,-96.86 544.88,-96.86 936.62,-96.86 936.62,-96.86 942.62,-96.86 948.62,-102.86 948.62,-108.86 948.62,-108.86 948.62,-131.11 948.62,-131.11 948.62,-137.11 942.62,-143.11 936.62,-143.11"/>
<text xml:space="preserve" text-anchor="middle" x="740.75" y="-129.61" font-family="Helvetica,sans-Serif" font-size="10.00">validate</text>
<text xml:space="preserve" text-anchor="middle" x="740.75" y="-116.86" font-family="Helvetica,sans-Serif" font-size="10.00">(llm)</text>
<text xml:space="preserve" text-anchor="middle" x="740.75" y="-104.11" font-family="Helvetica,sans-Serif" font-size="10.00">**Step 7/7: Validate FSM** &#160;FSM data: {{fsm&#45;data}} &#160;**Your Task:** &#160;Test that th...</text>
</g>
<!-- assemble&#45;fsm&#45;&gt;validate -->
<g id="edge9" class="edge">
<title>assemble&#45;fsm&#45;&gt;validate</title>
<path fill="none" stroke="black" d="M740.75,-189.86C740.75,-179.23 740.75,-166.33 740.75,-154.58"/>
<polygon fill="black" stroke="black" points="744.25,-154.85 740.75,-144.85 737.25,-154.85 744.25,-154.85"/>
<text xml:space="preserve" text-anchor="middle" x="758.38" y="-163.81" font-family="Helvetica,sans-Serif" font-size="9.00">validate</text>
</g>
<!-- validate&#45;&gt;end -->
<g id="edge10" class="edge">
<title>validate&#45;&gt;end</title>
<path fill="none" stroke="black" d="M740.75,-96.43C740.75,-85.84 740.75,-72.98 740.75,-61.15"/>
<polygon fill="black" stroke="black" points="744.25,-61.29 740.75,-51.29 737.25,-61.29 744.25,-61.29"/>
<text xml:space="preserve" text-anchor="middle" x="749.38" y="-70.31" font-family="Helvetica,sans-Serif" font-size="9.00">end</text>
</g>
</g>
</svg>
