<?xml version="1.0" encoding="UTF-8" standalone="no"?>
<!DOCTYPE svg PUBLIC "-//W3C//DTD SVG 1.1//EN"
 "http://www.w3.org/Graphics/SVG/1.1/DTD/svg11.dtd">
<!-- Generated by graphviz version 13.1.2 (20250808.2320)
 -->
<!-- Title: bmad&#45;quick&#45;spec&#45;flow Pages: 1 -->
<svg width="1049pt" height="965pt"
 viewBox="0.00 0.00 1049.00 965.00" xmlns="http://www.w3.org/2000/svg" xmlns:xlink="http://www.w3.org/1999/xlink">
<g id="graph0" class="graph" transform="scale(1 1) rotate(0) translate(4 960.97)">
<title>bmad&#45;quick&#45;spec&#45;flow</title>
<polygon fill="white" stroke="none" points="-4,4 -4,-960.97 1045.25,-960.97 1045.25,4 -4,4"/>
<!-- title -->
<g id="node1" class="node">
<title>title</title>
<text xml:space="preserve" text-anchor="start" x="325.62" y="-939.67" font-family="Helvetica,sans-Serif" font-size="14.00" fill="#666666">Barry: Elite Full&#45;Stack Developer + Quick Flow Specialist</text>
<text xml:space="preserve" text-anchor="start" x="516.12" y="-922.42" font-family="Helvetica,sans-Serif" font-size="14.00" fill="#666666"> &#160;</text>
<text xml:space="preserve" text-anchor="start" x="270.5" y="-905.17" font-family="Helvetica,sans-Serif" font-size="14.00" fill="#666666"> &#160;Handles Quick Flow &#45; from tech spec creation through implementation.</text>
<text xml:space="preserve" text-anchor="start" x="328.62" y="-887.92" font-family="Helvetica,sans-Serif" font-size="14.00" fill="#666666"> &#160;Minimum ceremony, lean artifacts, ruthless efficiency.</text>
<text xml:space="preserve" text-anchor="start" x="516.12" y="-870.67" font-family="Helvetica,sans-Serif" font-size="14.00" fill="#666666"> &#160;</text>
<text xml:space="preserve" text-anchor="start" x="271.62" y="-853.42" font-family="Helvetica,sans-Serif" font-size="14.00" fill="#666666"> &#160;Communication Style: Direct, confident, and implementation&#45;focused. </text>
<text xml:space="preserve" text-anchor="start" x="269.38" y="-836.17" font-family="Helvetica,sans-Serif" font-size="14.00" fill="#666666"> &#160;Uses tech slang (e.g., refactor, patch, extract, spike) and gets straight </text>
<text xml:space="preserve" text-anchor="start" x="277.62" y="-818.92" font-family="Helvetica,sans-Serif" font-size="14.00" fill="#666666"> &#160;to the point. No fluff, just results. Stays focused on the task at hand.</text>
<text xml:space="preserve" text-anchor="start" x="516.12" y="-801.67" font-family="Helvetica,sans-Serif" font-size="14.00" fill="#666666"> &#160;</text>
<text xml:space="preserve" text-anchor="start" x="480.5" y="-784.42" font-family="Helvetica,sans-Serif" font-size="14.00" fill="#666666"> &#160;Principles:</text>
<text xml:space="preserve" text-anchor="start" x="322.25" y="-767.17" font-family="Helvetica,sans-Serif" font-size="14.00" fill="#666666"> &#160;&#45; Planning and execution are two sides of the same coin</text>
<text xml:space="preserve" text-anchor="start" x="374" y="-749.92" font-family="Helvetica,sans-Serif" font-size="14.00" fill="#666666"> &#160;&#45; Specs are for building, not bureaucracy</text>
<text xml:space="preserve" text-anchor="start" x="318.12" y="-732.67" font-family="Helvetica,sans-Serif" font-size="14.00" fill="#666666"> &#160;&#45; Code that ships is better than perfect code that doesn&#39;t</text>
<text xml:space="preserve" text-anchor="start" x="8" y="-715.42" font-family="Helvetica,sans-Serif" font-size="14.00" fill="#666666"> &#160;&#45; If project&#45;context.md exists, follow it. If absent, proceed without.\nYou are helping a user create an implementation&#45;ready technical specification.</text>
</g>
<!-- start -->
<g id="node2" class="node">
<title>start</title>
<ellipse fill="lightgreen" stroke="black" cx="520.62" cy="-642.91" rx="23.56" ry="23.56"/>
<ellipse fill="none" stroke="black" cx="520.62" cy="-642.91" rx="27.56" ry="27.56"/>
<text xml:space="preserve" text-anchor="middle" x="520.62" y="-639.79" font-family="Helvetica,sans-Serif" font-size="10.00">start</text>
</g>
<!-- title&#45;&gt;start -->
<!-- init -->
<g id="node4" class="node">
<title>init</title>
<path fill="none" stroke="black" d="M715,-568.11C715,-568.11 326.25,-568.11 326.25,-568.11 320.25,-568.11 314.25,-562.11 314.25,-556.11 314.25,-556.11 314.25,-533.86 314.25,-533.86 314.25,-527.86 320.25,-521.86 326.25,-521.86 326.25,-521.86 715,-521.86 715,-521.86 721,-521.86 727,-527.86 727,-533.86 727,-533.86 727,-556.11 727,-556.11 727,-562.11 721,-568.11 715,-568.11"/>
<text xml:space="preserve" text-anchor="middle" x="520.62" y="-554.61" font-family="Helvetica,sans-Serif" font-size="10.00">init</text>
<text xml:space="preserve" text-anchor="middle" x="520.62" y="-541.86" font-family="Helvetica,sans-Serif" font-size="10.00">(llm)</text>
<text xml:space="preserve" text-anchor="middle" x="520.62" y="-529.11" font-family="Helvetica,sans-Serif" font-size="10.00">You are starting a new Quick Spec Flow session. &#160;**Your Role:** &#45; Greet the user...</text>
</g>
<!-- start&#45;&gt;init -->
<g id="edge2" class="edge">
<title>start&#45;&gt;init</title>
<path fill="none" stroke="black" d="M520.62,-614.94C520.62,-604.08 520.62,-591.43 520.62,-579.96"/>
<polygon fill="black" stroke="black" points="524.13,-580.06 520.63,-570.06 517.13,-580.06 524.13,-580.06"/>
<text xml:space="preserve" text-anchor="middle" x="527.75" y="-588.81" font-family="Helvetica,sans-Serif" font-size="9.00">init</text>
</g>
<!-- end -->
<g id="node3" class="node">
<title>end</title>
<ellipse fill="lightcoral" stroke="black" cx="520.62" cy="-24.8" rx="20.8" ry="20.8"/>
<ellipse fill="none" stroke="black" cx="520.62" cy="-24.8" rx="24.8" ry="24.8"/>
<text xml:space="preserve" text-anchor="middle" x="520.62" y="-21.68" font-family="Helvetica,sans-Serif" font-size="10.00">end</text>
</g>
<!-- understand&#45;requirements -->
<g id="node5" class="node">
<title>understand&#45;requirements</title>
<path fill="none" stroke="black" d="M720.25,-474.61C720.25,-474.61 321,-474.61 321,-474.61 315,-474.61 309,-468.61 309,-462.61 309,-462.61 309,-440.36 309,-440.36 309,-434.36 315,-428.36 321,-428.36 321,-428.36 720.25,-428.36 720.25,-428.36 726.25,-428.36 732.25,-434.36 732.25,-440.36 732.25,-440.36 732.25,-462.61 732.25,-462.61 732.25,-468.61 726.25,-474.61 720.25,-474.61"/>
<text xml:space="preserve" text-anchor="middle" x="520.62" y="-461.11" font-family="Helvetica,sans-Serif" font-size="10.00">understand&#45;requirements</text>
<text xml:space="preserve" text-anchor="middle" x="520.62" y="-448.36" font-family="Helvetica,sans-Serif" font-size="10.00">(llm)</text>
<text xml:space="preserve" text-anchor="middle" x="520.62" y="-435.61" font-family="Helvetica,sans-Serif" font-size="10.00">**Step 1 of 4: Analyze Requirement Delta** &#160;The user wants to build: {{user&#45;requ...</text>
</g>
<!-- init&#45;&gt;understand&#45;requirements -->
<g id="edge3" class="edge">
<title>init&#45;&gt;understand&#45;requirements</title>
<path fill="none" stroke="black" d="M520.62,-521.36C520.62,-510.73 520.62,-497.83 520.62,-486.08"/>
<polygon fill="black" stroke="black" points="524.13,-486.35 520.63,-476.35 517.13,-486.35 524.13,-486.35"/>
<text xml:space="preserve" text-anchor="middle" x="578.75" y="-495.31" font-family="Helvetica,sans-Serif" font-size="9.00">understand&#45;requirements</text>
</g>
<!-- investigate&#45;codebase -->
<g id="node6" class="node">
<title>investigate&#45;codebase</title>
<path fill="none" stroke="black" d="M721.75,-381.11C721.75,-381.11 319.5,-381.11 319.5,-381.11 313.5,-381.11 307.5,-375.11 307.5,-369.11 307.5,-369.11 307.5,-346.86 307.5,-346.86 307.5,-340.86 313.5,-334.86 319.5,-334.86 319.5,-334.86 721.75,-334.86 721.75,-334.86 727.75,-334.86 733.75,-340.86 733.75,-346.86 733.75,-346.86 733.75,-369.11 733.75,-369.11 733.75,-375.11 727.75,-381.11 721.75,-381.11"/>
<text xml:space="preserve" text-anchor="middle" x="520.62" y="-367.61" font-family="Helvetica,sans-Serif" font-size="10.00">investigate&#45;codebase</text>
<text xml:space="preserve" text-anchor="middle" x="520.62" y="-354.86" font-family="Helvetica,sans-Serif" font-size="10.00">(llm)</text>
<text xml:space="preserve" text-anchor="middle" x="520.62" y="-342.11" font-family="Helvetica,sans-Serif" font-size="10.00">**Step 2 of 4: Map Technical Constraints &amp; Anchor Points** &#160;**Confirmed Understa...</text>
</g>
<!-- understand&#45;requirements&#45;&gt;investigate&#45;codebase -->
<g id="edge4" class="edge">
<title>understand&#45;requirements&#45;&gt;investigate&#45;codebase</title>
<path fill="none" stroke="black" d="M520.62,-427.86C520.62,-417.23 520.62,-404.33 520.62,-392.58"/>
<polygon fill="black" stroke="black" points="524.13,-392.85 520.63,-382.85 517.13,-392.85 524.13,-392.85"/>
<text xml:space="preserve" text-anchor="middle" x="568.25" y="-401.81" font-family="Helvetica,sans-Serif" font-size="9.00">investigate&#45;codebase</text>
</g>
<!-- generate&#45;plan -->
<g id="node7" class="node">
<title>generate&#45;plan</title>
<path fill="none" stroke="black" d="M691,-287.61C691,-287.61 350.25,-287.61 350.25,-287.61 344.25,-287.61 338.25,-281.61 338.25,-275.61 338.25,-275.61 338.25,-227.86 338.25,-227.86 338.25,-221.86 344.25,-215.86 350.25,-215.86 350.25,-215.86 691,-215.86 691,-215.86 697,-215.86 703,-221.86 703,-227.86 703,-227.86 703,-275.61 703,-275.61 703,-281.61 697,-287.61 691,-287.61"/>
<text xml:space="preserve" text-anchor="middle" x="520.62" y="-274.11" font-family="Helvetica,sans-Serif" font-size="10.00">generate&#45;plan</text>
<text xml:space="preserve" text-anchor="middle" x="520.62" y="-261.36" font-family="Helvetica,sans-Serif" font-size="10.00">(llm)</text>
<text xml:space="preserve" text-anchor="middle" x="520.62" y="-248.61" font-family="Helvetica,sans-Serif" font-size="10.00">A specification is considered &#39;Ready for Development&#39; ONLY if it meets:</text>
<text xml:space="preserve" text-anchor="middle" x="520.62" y="-235.86" font-family="Helvetica,sans-Serif" font-size="10.00"> &#160;</text>
<text xml:space="preserve" text-anchor="middle" x="520.62" y="-223.11" font-family="Helvetica,sans-Serif" font-size="10.00"> &#160;&#45; *...</text>
</g>
<!-- investigate&#45;codebase&#45;&gt;generate&#45;plan -->
<g id="edge5" class="edge">
<title>investigate&#45;codebase&#45;&gt;generate&#45;plan</title>
<path fill="none" stroke="black" d="M520.62,-334.36C520.62,-324.1 520.62,-311.58 520.62,-299.44"/>
<polygon fill="black" stroke="black" points="524.13,-299.53 520.63,-289.53 517.13,-299.53 524.13,-299.53"/>
<text xml:space="preserve" text-anchor="middle" x="552.12" y="-308.31" font-family="Helvetica,sans-Serif" font-size="9.00">generate&#45;plan</text>
</g>
<!-- review -->
<g id="node8" class="node">
<title>review</title>
<path fill="none" stroke="black" d="M691,-168.61C691,-168.61 350.25,-168.61 350.25,-168.61 344.25,-168.61 338.25,-162.61 338.25,-156.61 338.25,-156.61 338.25,-108.86 338.25,-108.86 338.25,-102.86 344.25,-96.86 350.25,-96.86 350.25,-96.86 691,-96.86 691,-96.86 697,-96.86 703,-102.86 703,-108.86 703,-108.86 703,-156.61 703,-156.61 703,-162.61 697,-168.61 691,-168.61"/>
<text xml:space="preserve" text-anchor="middle" x="520.62" y="-155.11" font-family="Helvetica,sans-Serif" font-size="10.00">review</text>
<text xml:space="preserve" text-anchor="middle" x="520.62" y="-142.36" font-family="Helvetica,sans-Serif" font-size="10.00">(llm)</text>
<text xml:space="preserve" text-anchor="middle" x="520.62" y="-129.61" font-family="Helvetica,sans-Serif" font-size="10.00">A specification is considered &#39;Ready for Development&#39; ONLY if it meets:</text>
<text xml:space="preserve" text-anchor="middle" x="520.62" y="-116.86" font-family="Helvetica,sans-Serif" font-size="10.00"> &#160;</text>
<text xml:space="preserve" text-anchor="middle" x="520.62" y="-104.11" font-family="Helvetica,sans-Serif" font-size="10.00"> &#160;&#45; *...</text>
</g>
<!-- generate&#45;plan&#45;&gt;review -->
<g id="edge6" class="edge">
<title>generate&#45;plan&#45;&gt;review</title>
<path fill="none" stroke="black" d="M520.62,-215.63C520.62,-204.52 520.62,-192.07 520.62,-180.29"/>
<polygon fill="black" stroke="black" points="524.13,-180.32 520.63,-170.32 517.13,-180.32 524.13,-180.32"/>
<text xml:space="preserve" text-anchor="middle" x="535.25" y="-189.31" font-family="Helvetica,sans-Serif" font-size="9.00">review</text>
</g>
<!-- review&#45;&gt;end -->
<g id="edge7" class="edge">
<title>review&#45;&gt;end</title>
<path fill="none" stroke="black" d="M520.62,-96.46C520.62,-85.11 520.62,-72.54 520.62,-61.19"/>
<polygon fill="black" stroke="black" points="524.13,-61.41 520.63,-51.41 517.13,-61.41 524.13,-61.41"/>
<text xml:space="preserve" text-anchor="middle" x="529.25" y="-70.31" font-family="Helvetica,sans-Serif" font-size="9.00">end</text>
</g>
</g>
</svg>
